<svg xmlns="http://www.w3.org/2000/svg" viewBox="0 0 80 50">
  <g id="Logo_Mobile" data-name="Logo Mobile">
    <path d="M40.31,9.52A18.45,18.45,0,0,1,57.77,21.94H22.84A18.47,18.47,0,0,1,40.31,9.52Z" style="fill: #e4ded0;fill-rule: evenodd"/>
    <g>
      <path d="M24.31,45.58l.7.19c0,.14,0,.27,0,.37a1.63,1.63,0,0,1-.6,1.33,2.46,2.46,0,0,1-1.61.49c-1.69,0-2.53-1-2.53-2.84A3.2,3.2,0,0,1,21,42.93,2.46,2.46,0,0,1,23,42.09c1.23,0,1.84.59,1.84,1.77l-.7.33c0-.17,0-.3,0-.39,0-.84-.34-1.26-1-1.26S22,43.43,22,45.21c0,1.53.4,2.3,1.19,2.3a1,1,0,0,0,.82-.39,1.47,1.47,0,0,0,.33-1A5.34,5.34,0,0,0,24.31,45.58Z" style="fill: #e5decf"/>
      <path d="M30.8,42.18l1.59,5.69H30.73l-.34-1.24H28.67l-.36,1.24h-.65l1.69-5.69Zm-2,3.88h1.39l-.67-2.52Z" style="fill: #e5decf"/>
      <path d="M39.11,43.77l-.76.14a2.09,2.09,0,0,0,0-.38c0-.66-.41-1-1.21-1-.63,0-.95.23-.95.68s.35.64,1.06.88c1.37.47,2.05,1.16,2.05,2.08a1.62,1.62,0,0,1-.57,1.3,2.25,2.25,0,0,1-1.53.49c-1.41,0-2.12-.54-2.12-1.64,0-.08,0-.19,0-.33l.8-.17a2.64,2.64,0,0,0-.09.63c0,.7.4,1.06,1.21,1.06.65,0,1-.26,1-.77s-.38-.71-1.16-1c-1.12-.41-1.68-1.07-1.68-2a1.56,1.56,0,0,1,.56-1.24,2.26,2.26,0,0,1,1.48-.47C38.49,42.08,39.11,42.65,39.11,43.77Z" style="fill: #e5decf"/>
      <path d="M44.3,42.18v5.69H42.64V42.18Z" style="fill: #e5decf"/>
      <path d="M52,42.18v5.69H50.74l-2.37-3.6v3.6h-.56V42.18h1l2.59,3.89V42.18Z" style="fill: #e5decf"/>
      <path d="M57.85,42.08c1.65,0,2.48,1,2.48,2.94S59.49,48,57.8,48s-2.53-1-2.53-3S56.13,42.08,57.85,42.08Zm-.05.45a.64.64,0,0,0-.63.52A7.56,7.56,0,0,0,57,45a7.56,7.56,0,0,0,.17,2,.64.64,0,0,0,1.26,0,7.56,7.56,0,0,0,.17-2,7.61,7.61,0,0,0-.17-2A.64.64,0,0,0,57.8,42.53Z" style="fill: #e5decf"/>
    </g>
    <polygon points="69.82 47.09 67.83 45.11 69.82 43.13 71.81 45.11 69.82 47.09" style="fill: #e4ded0;fill-rule: evenodd"/>
    <polygon points="10.87 47.09 8.88 45.11 10.87 43.13 12.86 45.11 10.87 47.09" style="fill: #e4ded0;fill-rule: evenodd"/>
    <rect x="1.11" y="38.4" width="78.39" height="1.22" style="fill: #e4ded0"/>
    <g>
      <path d="M6.88,34.27,5.5,35.64H2.86L1.49,34.27V26.69l1.37-1.38H5.5l1.38,1.38Zm-1.72-.35V27H3.21v6.89Z" style="fill: #e5decf"/>
      <path d="M13.74,35.64H12L10.32,32h-.25v2h.67v1.72H7.68V33.92h.67V27H7.68V25.31h4.68l1.38,1.38v3.89L12.35,32h-.16l.88,2h.67ZM12,30.24V27H10.07v3.21Z" style="fill: #e5decf"/>
      <path d="M17.61,35.64H14.55V33.92h.67V27h-.67V25.31h3.06V27h-.67v6.89h.67Z" style="fill: #e5decf"/>
      <path d="M24.29,35.64H18.23V33.92h.67V27h-.67V25.31h6.06v3H22.57V27H20.62v2.09h1.83v1.71H20.62v3.09h1.95V32h1.72Z" style="fill: #e5decf"/>
      <path d="M32.4,27h-.67v8.61H30l-2.53-5.95v4.23h.67v1.72H25.09V33.92h.67V27h-.67V25.31h2.4l2.52,6V27h-.67V25.31H32.4Z" style="fill: #e5decf"/>
      <path d="M39.21,28.38H37.5V27h-.43v6.89h.48v1.72H34.86V33.92h.49V27h-.43v1.35H33.2V25.31h6Z" style="fill: #e5decf"/>
      <path d="M46.31,35.64H43.25V33.92h.47l-.79-1.55-.77,1.55h.47v1.72H39.57V33.92h.67L42,30.46,40.26,27h-.69V25.31h3.06V27h-.46l.77,1.53L43.71,27h-.46V25.31h3.06V27h-.69L43.9,30.46l1.74,3.46h.67Z" style="fill: #e5decf"/>
      <path d="M53,30.58,51.62,32H49.33v2H50v1.72H46.94V33.92h.67V27h-.67V25.31h4.68L53,26.69Zm-1.72-.34V27h-2v3.21Z" style="fill: #e5decf"/>
      <path d="M59.86,35.64H58.08L56.44,32h-.25v2h.67v1.72H53.8V33.92h.67V27H53.8V25.31h4.68l1.38,1.38v3.89L58.48,32h-.16l.87,2h.67Zm-1.72-5.4V27h-2v3.21Z" style="fill: #e5decf"/>
      <path d="M66.73,35.64H60.67V33.92h.67V27h-.67V25.31h6.06v3H65V27h-2v2.09h1.83v1.71H63.06v3.09h2V32h1.72Z" style="fill: #e5decf"/>
      <path d="M73.1,34.27l-1.37,1.37H69.09l-1.37-1.37v-1.7h1.71v1.35h2v-2.6h-2.3L67.72,30V26.69l1.37-1.38h2.64l1.37,1.38v1.69H71.39V27h-2v2.58H71.7L73.1,31Z" style="fill: #e5decf"/>
      <path d="M79.48,34.27l-1.37,1.37H75.47l-1.38-1.37v-1.7h1.72v1.35h2v-2.6H75.47L74.09,30V26.69l1.38-1.38h2.64l1.37,1.38v1.69H77.76V27h-2v2.58h2.27L79.48,31Z" style="fill: #e5decf"/>
    </g>
    <rect x="1.11" y="21.33" width="78.39" height="1.22" style="fill: #e4ded0"/>
    <path d="M14.34,21.32H66.27a27.24,27.24,0,0,0-26-20.09,27.25,27.25,0,0,0-26,20.09Zm53.52,1.23H12.75l.2-.77A28.51,28.51,0,0,1,40.31,0,28.51,28.51,0,0,1,67.67,21.78Z" style="fill: #e4ded0;fill-rule: evenodd"/>
    <path d="M20.09,15a1.34,1.34,0,0,1,.16-1.26,1.21,1.21,0,0,1,2.1.12,2.52,2.52,0,0,1,.27.8c.07.41.09.82.12,1.23a4.78,4.78,0,0,0,.4,1.75,7.45,7.45,0,0,0-2.7-.07,2.12,2.12,0,0,1-1.37-.28,1.19,1.19,0,0,1-.54-1.44A1.35,1.35,0,0,1,20,15Z" style="fill: #e4ded0;fill-rule: evenodd"/>
    <path d="M51,8,48.12,9.67c-.23-1.06-.47-2.16-.72-3.25l2.89-1.65C50.52,5.83,50.77,6.93,51,8Z" style="fill: #e4ded0;fill-rule: evenodd"/>
    <path d="M33.53,6.21l.26-.48A1.14,1.14,0,0,1,35,5.23a1.12,1.12,0,0,1,.84,1,1.07,1.07,0,0,1-.78,1.11,2.16,2.16,0,0,1-.8,0,3.54,3.54,0,0,1-.57-.2c.22.92.41,1.24,1.33,1q0,.11.09.24L33,9.25,32.91,9c.84-.45.75-.76.31-1.63L32.88,8A1.08,1.08,0,0,1,32,8.6a1.13,1.13,0,0,1-1-1.83,1.08,1.08,0,0,1,1.18-.39,5.08,5.08,0,0,1,.51.17l0-.06-.52-.28A1.19,1.19,0,0,1,31.49,5a1.13,1.13,0,1,1,2.24.31,4.48,4.48,0,0,1-.16.52l-.09.33Z" style="fill: #e4ded0;fill-rule: evenodd"/>
    <path d="M58.35,16.82c-.47.27-.52.55-.19,1.12L58,18.1l-1.19-1.74.2-.15,0,.07a3.13,3.13,0,0,0,.68.35c.13,0,.31-.08.47-.13v-.07l-.19-.08a1.25,1.25,0,0,1-.78-1.17A1.2,1.2,0,0,1,58,14.12a2.77,2.77,0,0,1,1.28,0c.45.07.89.17,1.33.21a7.69,7.69,0,0,0,1,0,6.54,6.54,0,0,0-.65,2.22,4.09,4.09,0,0,1-.32,1,1.16,1.16,0,0,1-1.93.31A1.61,1.61,0,0,1,58.35,16.82Z" style="fill: #e4ded0;fill-rule: evenodd"/>
  </g>
</svg>
