<?xml version="1.0" encoding="UTF-8"?>
<svg width="130" height="130" xmlns="http://www.w3.org/2000/svg" viewBox="0 0 130 130">
    <g id="Logo_Desktop" data-name="Logo Desktop">
      <polygon points="119.09 100.58 103.91 87.02 98.75 87.02 111.13 102.89 119.09 100.58" style="fill: #e4ded0;fill-rule: evenodd"/>
      <polygon points="10.49 100.58 25.67 87.02 30.83 87.02 18.45 102.89 10.49 100.58" style="fill: #e4ded0;fill-rule: evenodd"/>
      <polygon points="106.25 104.29 94.65 87.02 89.5 87.02 98.47 106.55 106.25 104.29" style="fill: #e4ded0;fill-rule: evenodd"/>
      <polygon points="23.26 104.29 34.87 87.02 40.01 87.02 31.05 106.55 23.26 104.29" style="fill: #e4ded0;fill-rule: evenodd"/>
      <polygon points="92.53 108.27 83.61 87.02 78.29 87.02 84.37 110.64 92.53 108.27" style="fill: #e4ded0;fill-rule: evenodd"/>
      <polygon points="36.98 108.27 45.91 87.02 51.23 87.02 45.14 110.64 36.98 108.27" style="fill: #e4ded0;fill-rule: evenodd"/>
      <polygon points="78.95 112.74 73.57 87.02 67.79 87.02 69.64 115.37 78.95 112.74" style="fill: #e4ded0;fill-rule: evenodd"/>
      <polygon points="50.63 112.74 56.01 87.02 61.79 87.02 59.94 115.37 50.63 112.74" style="fill: #e4ded0;fill-rule: evenodd"/>
      <path d="M22.41,83h85.17L129,102.8,65,127,1,102.8,22.41,83Zm103.5,19.14L106,84.56H24L4.09,102.16,65,121.35Z" style="fill: #e4ded0;fill-rule: evenodd"/>
      <path d="M65,15.61A30.14,30.14,0,0,1,93.52,36h-57A30.14,30.14,0,0,1,65,15.61Z" style="fill: #e4ded0;fill-rule: evenodd"/>
      <g>
        <path d="M38.87,74.75l1.15.3c0,.24,0,.44,0,.61a2.71,2.71,0,0,1-1,2.18,4,4,0,0,1-2.63.81q-4.12,0-4.13-4.67a5.28,5.28,0,0,1,1.2-3.59A4,4,0,0,1,36.65,69c2,0,3,1,3,2.91l-1.16.53c0-.27,0-.49,0-.64,0-1.37-.55-2.06-1.65-2.06s-1.74,1.46-1.74,4.38c0,2.51.65,3.76,2,3.76a1.68,1.68,0,0,0,1.34-.64,2.45,2.45,0,0,0,.53-1.6A6.63,6.63,0,0,0,38.87,74.75Z" style="fill: #e5decf"/>
        <path d="M49.48,69.17l2.58,9.32H49.35l-.55-2H46l-.59,2H44.35l2.76-9.32Zm-3.21,6.36h2.28l-1.1-4.13Z" style="fill: #e5decf"/>
        <path d="M63.05,71.78,61.8,72a3.37,3.37,0,0,0,.08-.63c0-1.08-.66-1.63-2-1.63-1,0-1.55.38-1.55,1.12,0,.56.58,1,1.73,1.45,2.24.77,3.35,1.9,3.35,3.41a2.64,2.64,0,0,1-.94,2.13,3.68,3.68,0,0,1-2.5.8q-3.45,0-3.45-2.68a3.81,3.81,0,0,1,0-.54l1.3-.29a4.33,4.33,0,0,0-.15,1q0,1.74,2,1.74c1.06,0,1.59-.42,1.59-1.25,0-.62-.64-1.17-1.9-1.63-1.83-.68-2.75-1.76-2.75-3.24a2.5,2.5,0,0,1,.92-2A3.62,3.62,0,0,1,60,69C62,69,63.05,69.93,63.05,71.78Z" style="fill: #e5decf"/>
        <path d="M71.51,69.17v9.32H68.82V69.17Z" style="fill: #e5decf"/>
        <path d="M84.11,69.17v9.32H82l-3.88-5.9v5.9h-.91V69.17H79l4.24,6.37V69.17Z" style="fill: #e5decf"/>
        <path d="M93.64,69q4.06,0,4.06,4.83t-4.14,4.82c-2.75,0-4.13-1.65-4.13-4.93S90.83,69,93.64,69Zm-.08.75a1,1,0,0,0-1,.84,12.58,12.58,0,0,0-.27,3.24,12.54,12.54,0,0,0,.27,3.23,1.06,1.06,0,0,0,2.07,0,12.54,12.54,0,0,0,.27-3.23,12.69,12.69,0,0,0-.27-3.24A1,1,0,0,0,93.56,69.75Z" style="fill: #e5decf"/>
      </g>
      <rect x="110.89" y="71.67" width="4.6" height="4.6" transform="translate(-19.14 101.74) rotate(-45.02)" style="fill: #e4ded0"/>
      <rect x="14.63" y="71.67" width="4.59" height="4.59" transform="translate(-47.36 33.65) rotate(-45.02)" style="fill: #e4ded0"/>
      <rect x="1" y="62.97" width="128" height="2" style="fill: #e4ded0"/>
      <g>
        <path d="M10.41,56.19,8.17,58.44H3.86L1.61,56.19V43.76l2.25-2.25H8.17l2.24,2.25Zm-2.8-.56V44.33H4.42v11.3Z" style="fill: #e5decf"/>
        <path d="M21.62,58.44H18.71L16,52.4h-.42v3.23h1.11v2.81h-5V55.63h1.09V44.33H11.73V41.51h7.64l2.25,2.25v6.38L19.36,52.4H19.1l1.42,3.23h1.1Zm-2.81-8.86V44.33H15.62v5.25Z" style="fill: #e5decf"/>
        <path d="M27.94,58.44h-5V55.63H24V44.33H22.94V41.51h5v2.82h-1.1v11.3h1.1Z" style="fill: #e5decf"/>
        <path d="M38.84,58.44H29V55.63h1.1V44.33H29V41.51h9.89v4.84H36v-2H32.85v3.41h3v2.82h-3v5.07H36V52.39h2.8Z" style="fill: #e5decf"/>
        <path d="M52.09,44.33H51V58.44h-2.8l-4.13-9.75v6.94h1.1v2.81h-5V55.63h1.09V44.33H40.16V41.51h3.91l4.12,9.76V44.33h-1.1V41.51h5Z" style="fill: #e5decf"/>
        <path d="M63.22,46.54H60.41V44.33h-.7v11.3h.79v2.81H56.11V55.63h.79V44.33h-.7v2.21H53.4v-5h9.82Z" style="fill: #e5decf"/>
        <path d="M74.81,58.44h-5V55.63h.77l-1.29-2.55L68,55.63h.78v2.81h-5V55.63h1.09L67.74,50l-2.82-5.62H63.8V41.51h5v2.82h-.75l1.25,2.5,1.26-2.5h-.75V41.51h5v2.82H73.68l-2.82,5.61,2.85,5.69h1.1Z" style="fill: #e5decf"/>
        <path d="M85.73,50.15l-2.26,2.26H79.73v3.22h1.11v2.81h-5V55.63h1.09V44.33H75.84V41.51h7.64l2.25,2.25Zm-2.81-.56V44.33H79.73v5.26Z" style="fill: #e5decf"/>
        <path d="M96.93,58.44H94l-2.67-6h-.41v3.23H92v2.81H87V55.63h1.09V44.33H87V41.51h7.65l2.24,2.25v6.38L94.67,52.4h-.26l1.43,3.23h1.09Zm-2.8-8.86V44.33H90.94v5.25Z" style="fill: #e5decf"/>
        <path d="M108.15,58.44h-9.9V55.63h1.1V44.33h-1.1V41.51h9.9v4.84h-2.81v-2h-3.19v3.41h3v2.82h-3v5.07h3.19V52.39h2.81Z" style="fill: #e5decf"/>
        <path d="M118.56,56.19l-2.25,2.25H112l-2.24-2.25V53.42h2.8v2.21h3.19V51.36H112l-2.24-2.25V43.76L112,41.51h4.31l2.25,2.25v2.78h-2.81V44.33h-3.19v4.22h3.71l2.29,2.25Z" style="fill: #e5decf"/>
        <path d="M129,56.19l-2.24,2.25h-4.31l-2.25-2.25V53.42H123v2.21h3.18V51.36h-3.74l-2.25-2.25V43.76l2.25-2.25h4.31L129,43.76v2.78h-2.81V44.33H123v4.22h3.71L129,50.8Z" style="fill: #e5decf"/>
      </g>
      <rect x="1" y="34.98" width="128" height="2" style="fill: #e4ded0"/>
      <path d="M22.6,35h84.8C101.87,15.5,84.61,2,65,2S28.13,15.5,22.6,35ZM110,37H20l.32-1.26C25.68,14.69,44.05,0,65,0s39.32,14.69,44.68,35.72Z" style="fill: #e4ded0;fill-rule: evenodd"/>
      <path d="M32,24.6a2.17,2.17,0,0,1,.26-2.07,2,2,0,0,1,3.42.19,4.1,4.1,0,0,1,.45,1.33c.11.66.14,1.33.19,2A7.88,7.88,0,0,0,37,28.92a12.31,12.31,0,0,0-4.4-.12,3.39,3.39,0,0,1-2.24-.45A2,2,0,0,1,29.44,26a2.2,2.2,0,0,1,2.32-1.41Z" style="fill: #e4ded0;fill-rule: evenodd"/>
      <path d="M82.47,13.15l-4.7,2.7c-.39-1.74-.79-3.54-1.18-5.33l4.71-2.7C81.68,9.56,82.08,11.36,82.47,13.15Z" style="fill: #e4ded0;fill-rule: evenodd"/>
      <path d="M53.94,10.19c.14-.27.27-.54.42-.79a1.84,1.84,0,0,1,3.42.89,1.77,1.77,0,0,1-1.28,1.83,3.57,3.57,0,0,1-1.3,0,5.5,5.5,0,0,1-.94-.32c.35,1.51.67,2,2.17,1.6,0,.12.09.25.15.4l-3.5,1.4-.16-.4c1.37-.74,1.23-1.24.51-2.67-.2.36-.37.69-.55,1a1.79,1.79,0,0,1-1.49,1,1.74,1.74,0,0,1-1.73-.91,1.73,1.73,0,0,1,.14-2.09,1.75,1.75,0,0,1,1.92-.64,8.27,8.27,0,0,1,.84.28l0-.1-.85-.46a1.94,1.94,0,0,1-1.15-1.93,1.84,1.84,0,1,1,3.65.5,6.11,6.11,0,0,1-.26.86l-.15.53Z" style="fill: #e4ded0;fill-rule: evenodd"/>
      <path d="M94.47,27.58c-.78.44-.86.9-.31,1.83l-.35.27-1.94-2.85a3.33,3.33,0,0,1,.32-.24.76.76,0,0,1,0,.11,5.68,5.68,0,0,0,1.12.58c.22.06.51-.14.77-.23v-.11l-.3-.13a2.05,2.05,0,0,1-1.28-1.91,2,2,0,0,1,1.44-1.74,4.27,4.27,0,0,1,2.1,0c.72.12,1.44.27,2.17.35a13.5,13.5,0,0,0,1.56,0,11.09,11.09,0,0,0-1.07,3.64,5.88,5.88,0,0,1-.52,1.6,1.88,1.88,0,0,1-3.14.49A2.55,2.55,0,0,1,94.47,27.58Z" style="fill: #e4ded0;fill-rule: evenodd"/>
    </g>
  </svg>