<svg xmlns="http://www.w3.org/2000/svg" viewBox="0 0 150 100"><g id="Logo_Desktop"><g id="name"><path d="M33.84,75c.21,2.18.36,4.3.4,6.44l0,.67c.08,2,.12,4,.2,6,.08,1.59.17,3.14.28,4.72A37.59,37.59,0,0,0,35.31,97a2.36,2.36,0,0,1,.08.38.61.61,0,0,1-.24.14,3.2,3.2,0,0,1-.61.15,4.1,4.1,0,0,0-.18.38,1.1,1.1,0,0,1-.47.43l-.67,0c-.33.18-.34.6-.46,1l-.42.52c-1.45-1.54-2.81-3.14-4.1-4.75-1.15-1.36-2.28-2.77-3.35-4.13l-5.27-6.85c.33-.64,1.14-.79,1.68-1.21.21-.13.55-.2.56-.62,0-.2-.14-.51,0-.55s.08,0,.18.08c.38.25.65.89,1,1.15s.54.11.74.14c-.5-.74-1.29-1.34-1.22-1.9.63.79,1.33,1.43,1.95,2.27,1,1.24,2,2.45,3,3.68S29.3,89.77,30.27,91c-.05-.39-.08-.72-.1-1.12-.1-1.93-.07-3.79-.09-5.71,0-1.76,0-3.47-.16-5.22-.09-1.21-.24-2.36-.33-3.53,0-.09.33.5.73.37s.6-.37.76-.43.41-.18.58-.06.39.4.53.45a.64.64,0,0,0,.28,0,1.92,1.92,0,0,0,.62-.49l.15-.1C33.46,75,33.61,75.08,33.84,75Z" style="fill:#fff"/><path d="M50,92.24v.14a2.45,2.45,0,0,1-.1.86c-.12.38-.25.66-.34,1.05a2.56,2.56,0,0,0-.11.62l0,.17c.11.13.22.19.23.29s0,.08-.14.11-.07,0-.14,0c-.25,0-.47-.15-.73-.14s-.3.29-.47.43c.54.15,1.3.18,1.28.49-.58-.11-1.12-.08-1.73-.22-2.85-.35-4.94-.55-5.48-.53l-.32,0-.35.08-.29.09c-.38.12-.66.34-.77.34a1.12,1.12,0,0,1-.35.12l-.22-.06-.63-.44c-.32,0-.52.29-.79.55l-.21.08-.29,0c-.07,0-.15,0-.18,0-.1-1.23-.2-2.46-.27-3.69l-.06-7c0-1.51.11-.76,0-2.23l-.1-1.88c0-.93-.13-1.74-.22-2.67A1.26,1.26,0,0,1,38,78.7h.32a6.67,6.67,0,0,0,.86.06h.54a.43.43,0,0,0,.35-.22c.13-.18.11-.52.22-.52s.11.06.15.19a2.48,2.48,0,0,1,.16.89l2-.1a26.32,26.32,0,0,1,3.48.07c.82.1,1.58.16,2.41.29v.18a3.27,3.27,0,0,1-.06.82c-.09.38-.11.69-.2,1a4.45,4.45,0,0,0,0,.58.68.68,0,0,0,.05.27c0,.1.19.16.2.27s0,.07-.11.11-.1,0-.21,0h-1s-.23.62-.32.8c.41.08,1,0,1,.19H46.46c-.86.05-2.68-.1-4,0a10.62,10.62,0,0,0-1.21,0l0,2.06.75-.06L45,85.29a10.33,10.33,0,0,1,1.36-.24c-.07,0-.09.1-.09.27a11.5,11.5,0,0,0,.27,1.19,2.32,2.32,0,0,1,.06.44v.18c0,.24-.16.31-.14.62a2.26,2.26,0,0,0,.28.84l.07.69-3.68.49c-.54.13-1.51.26-1.51.26v.29l0,1.09c.82,0,3.38.11,5.68.31C48.27,91.92,49.13,92,50,92.24ZM46.43,85h0Z" style="fill:#fff"/><path d="M65.5,79.66a3.83,3.83,0,0,1,.25,1.87c-.09,3.12-.43,10-.52,14.77-.31,0-.16-.44-.43-.43a1.05,1.05,0,0,0-.34.09c-.81.27-.74.37-1.22.39a.59.59,0,0,1-.31,0c-.24-.12-.33-.39-.57-.48h-.14c-.37,0-.6.37-.9.56l-.78.1c-.24-.67-1.65-3-2.09-3.81l-2-3.44c0,.41.06,2.74.08,3.15.05,3.49.06,5.07.08,5.51-.24,0-.26-.43-.5-.42a1.67,1.67,0,0,0-.91.45,1.43,1.43,0,0,1-.41.06c-.1,0-.2,0-.24,0-.24-.12-.36-.43-.6-.45l-.14,0c-.31,0-.57.3-.87.56a.27.27,0,0,1-.17,0l-.37,0c-.11,0-.07.07-.21.08l-.5-18.56a1.91,1.91,0,0,1,.58-.13c.58,0,1.14.19,1.65.16l.45,0a.55.55,0,0,0,.43-.23c.23-.18.25-.52.35-.53s.08.07.15.24l.15,1.67c.12.44.33.46.57.59,0-1-.36-2,.09-2.54,0,1.13.31,2.18.36,3.41l0,.27c.14.14.31,0,.55.12a4.73,4.73,0,0,1-.57-2l1.14,2.48c.64,1.31,1.24,3,2,4.34.45.77,1.23,2.14,1.69,3.08-.07-2.92.1-2.2.09-7,0-1.61,0-3.19,0-4.83.24-.12.3-.19.47-.19a2.84,2.84,0,0,1,.45,0l.1,0a4.8,4.8,0,0,0,1.38.15.57.57,0,0,0,.47-.23c.16-.25.18-.56.28-.56s.11.06.15.2a2.42,2.42,0,0,1,.09.54v.79a1.56,1.56,0,0,0,.05.44c.12.44.4.46.55.7C65.38,80,65.43,79.66,65.5,79.66Z" style="fill:#fff"/><path d="M76.69,84.36,76.63,87a1.85,1.85,0,0,1-.09.72l-.07,3.35c0,.79,0,3,.1,3.76V95c.08,1,.09,1.89.1,3-.34-.08-.4-.42-.67-.43s-.66.36-.76.4a1.7,1.7,0,0,1-.42.06c-.1,0-.2,0-.23,0s-.3-.39-.58-.43-.59.26-.86.43a.77.77,0,0,1-.28.06h-.2c-.11,0-.21,0-.24,0-.06-2,0-9,.07-15l-1.27,0a19.1,19.1,0,0,0-3.35-.42l-.31-.05-.06-.27a2.21,2.21,0,0,1,.08-.41l0-.17v-.14a5.27,5.27,0,0,0,.26-1,4.57,4.57,0,0,0,.08-.48.63.63,0,0,0-.1-.34c-.13-.11-.33-.18-.33-.28s.07-.11.17-.14.17,0,.28,0l.31,0a1.14,1.14,0,0,0,.34,0,.74.74,0,0,0,.27,0c.31-.1.35-.3.53-.47-.69-.12-1.13-.16-1.68-.31l-.1,0c.31-.13.62,0,.93.06l3.08.07c1.34,0,2.61.06,4,.06s4.78.06,5.84,0c-.11.24-.38.13-.39.37a.62.62,0,0,0,.07.31c.09.38.25.76.25.79a1,1,0,0,1,0,.35.53.53,0,0,1,0,.27c0,.17-.35.3-.35.47v.17c0,.28.23.52.36.83a.39.39,0,0,1,0,.21v.24c0,.1-.53.13-4.71.45A8.56,8.56,0,0,0,76.69,84.36Z" style="fill:#fff"/><path d="M96.55,78.68l0,3.56c0,1.2-.07,3.54-.09,4.73l-.1,4.32,0,.72a5.18,5.18,0,0,1-.08.75.41.41,0,0,0,0,.17v.48c-.11.51-.22.92-.36,1.43a8.13,8.13,0,0,1-.32.79c-.18.27-.32.51-.5.74a4.91,4.91,0,0,1-.69.68,3.41,3.41,0,0,1-.76.53,4.09,4.09,0,0,1-.8.37c-.31.06-.58.13-.82.16a5.56,5.56,0,0,1-1.51.14h-.21l-.17,0h-.34a6.63,6.63,0,0,1-.75-.15,5.93,5.93,0,0,1-1.57-.47,5.38,5.38,0,0,1-1.15-.8,5.28,5.28,0,0,1-.91-1.08,6.09,6.09,0,0,1-.57-1.11,4.35,4.35,0,0,1-.39-1l-.07-.14-.09-.42a2,2,0,0,1-.17-.58,8.47,8.47,0,0,1-.31-1.65l0-2.09c0-.65.09-2.85.17-3.5s.25-2.6.4-3.42.19-1.57.24-2.29l.07-.1a.71.71,0,0,1,.48-.2,1.36,1.36,0,0,1,.51.15c.38.14.61.38,1,.42.1,0,.24.11.37.11s.31,0,.42-.4a4.53,4.53,0,0,0,.26-.92c0-.11.07-.14.1-.14l.06.45a2.19,2.19,0,0,1,0,.51c0,.41-.08.89-.12,1.34,0,.65-.16,1.29-.17,1.74v.21a2.28,2.28,0,0,0,.29,1.23c.63-3.55.46-5.27.8-5.43a11.08,11.08,0,0,1-.1,1.92l-.2,1.74c-.12,1.2-.27,3.43-.46,4.62,0,.41,0,.83,0,1.17v.68c0,.48.11,1.89.13,2.27l.06,1,.16.34a2.64,2.64,0,0,1,.23.62c.17.17.2.31.37.45s.17.18.27.28.31.11.51.21a2.71,2.71,0,0,0,.58.12l.48.21a1.71,1.71,0,0,0,.55-.13l.38-.17a.93.93,0,0,0,.28-.33A2.76,2.76,0,0,0,92,93a2.88,2.88,0,0,0,.08-.65c0-.47,0-.89.06-1.47l0-2.91.09-1.06c0-1.68.08-6.31.07-8.06v-.24c.34.39.16,1,.4,1s.93-.77,1.11-.77a.91.91,0,0,1,.34-.13.24.24,0,0,1,.2.14c.24.18.26.86.5,1a.2.2,0,0,0,.14,0c.31,0,.56-.6.84-1a.26.26,0,0,1,.24-.13c.1,0,.13,0,.24,0A.26.26,0,0,0,96.55,78.68Z" style="fill:#fff"/><path d="M112.09,95.38l1,1.67a.27.27,0,0,0-.24-.14c-.38,0-.94.49-1.11.66a1.06,1.06,0,0,1-.52.26c-.14,0-.31-.08-.41-.08l-.11,0c-.38.09-.49.33-.73.56s-.42.16-.59.3c-.62-1.12-1.18-2.16-1.8-3.37s-.94-2-1.36-3.09a12.52,12.52,0,0,1-.57-1.59c-.69,0-2.42,0-2.42,0l-.08,3.06a8.55,8.55,0,0,1,.1,1.58c-.21-.11-.13-.38-.37-.39a2.31,2.31,0,0,0-1,.32,1.51,1.51,0,0,1-.37,0,.69.69,0,0,1-.24-.07c-.13-.11-.33-.39-.46-.42l-.17,0c-.27,0-.48.26-.72.42l-.24.07-.3,0c-.07,0-.1,0-.11,0l.41-15.89a1.22,1.22,0,0,1,.52-.09c.5,0,1,.2,1.41.21h0s.35.1.29.06v-.27c.07-.1,0-.21-.17-.31s-.68-.19-.68-.3.11-.06.32-.09a3.65,3.65,0,0,1,1.13,0,1.14,1.14,0,0,0,.58,0h.24c.27.08.68.09.69-.08s-2.43-.13-2.56-.54a17.94,17.94,0,0,1,2.06,0c3.59.09,5.81.36,8.12,2.58a7.17,7.17,0,0,1,2,3.82,7.05,7.05,0,0,1-3.35,5,6.19,6.19,0,0,1-.62.25c.09.25.15.49.25.7.36.86.61,1.76,1,2.69A20.42,20.42,0,0,0,112.09,95.38Zm-8.35-8.55c.72,0,1.44-.1,2.13-.12,3.74,0,4.17-3.45,2.78-4.28s-1-.71-3.77-1a13.41,13.41,0,0,0-1.44-.14l0,.66-.19,4.86Z" style="fill:#fff"/><path d="M128.72,90.3a.18.18,0,0,1,.09-.06c0-.07-.05-.13-.06-.16a3,3,0,0,1,.23-.65,3.77,3.77,0,0,0,.15-.76v-.13c-.27-.09-.55-.14-.78-.22l-.11-.54h0a1.47,1.47,0,0,0-.1-.22l-.07-.31c-.39-1.67-.82-3.42-1.28-5.13-.49-2-1-4.91-1.68-6.9l-.6.29c-.25.27-.44.64-.82.67l-.61-.27a1.12,1.12,0,0,0-.59.19s-.15.17-.32.27a4.56,4.56,0,0,0-.62-.13.77.77,0,0,0-.28,0,2.6,2.6,0,0,0-.08.38c-.36,1.44-.81,3.64-1.3,5s-1.13,2.91-1.73,4.37c-.75,1.81-1.53,3.58-2.32,5.46l-.26.61c-.86,1.94-.06.38-.78,2.43.24,0,.34.15.58.16l.18,0a2.11,2.11,0,0,1,.76-.18.74.74,0,0,1,.28.08c.1.1.12.49.29.63s.37.18.54.19.49-.09.87-.08.43.71.5.64c.41-1.09.76-2.18,1.18-3.31l.22-.63c0-.08.12-.25.27-.6s.23-.54.34-.81l.16,0a4.21,4.21,0,0,1,2.32.26l1.19.19c.4,1.82,1,4.37,1.26,5.54.21,1,.56,1.88.8,2.86.29-.47-.16-1.35-.31-2.22.17.11.38,0,.61.43s.21,1.08.44,1.47c.06.1.1.14.13.14s.08-.34.19-.51c.19-.38.53-.29.77-.32.66-.15,1.45,0,2-.39Zm-6.16-2.79-.61,0c.24-.65.47-1.29.7-1.87.15-.38.49-1.55.61-1.93.24,1,.4,2.55.58,4Z" style="fill:#fff"/></g><g id="headline"><path d="M51,72.31l1.92-1a1.2,1.2,0,0,0,.52.79,2.12,2.12,0,0,0,2,.07.68.68,0,0,0,.35-.62c0-.41-.41-.76-1.24-1l-.62-.22a6.29,6.29,0,0,1-2.1-1.15,2,2,0,0,1-.59-1.44,2.46,2.46,0,0,1,1-2,4.7,4.7,0,0,1,4.62-.32,2.78,2.78,0,0,1,1.24,1.32l-1.84.91a1.32,1.32,0,0,0-.52-.73,1.56,1.56,0,0,0-.92-.25,1.54,1.54,0,0,0-.9.23.68.68,0,0,0-.34.59c0,.43.57.83,1.7,1.2l.31.1a5,5,0,0,1,2,1.08,2.17,2.17,0,0,1,.6,1.58,2.45,2.45,0,0,1-1,2,4.35,4.35,0,0,1-2.68.75,4.74,4.74,0,0,1-2.28-.5A2.5,2.5,0,0,1,51,72.31Z" style="fill:#fff"/><path d="M62.13,74.16V64.3h2.49v9.86Z" style="fill:#fff"/><path d="M83.84,74.16v-5H82.63v-2h1.21V64.3h2.5v2.87h1.21v2H86.34v5Z" style="fill:#fff"/><path d="M91.23,72.31l1.93-1a1.16,1.16,0,0,0,.51.79,1.78,1.78,0,0,0,1,.29,1.81,1.81,0,0,0,1-.22.7.7,0,0,0,.35-.62c0-.41-.42-.76-1.25-1l-.61-.22a6.25,6.25,0,0,1-2.11-1.15,2,2,0,0,1-.58-1.44,2.47,2.47,0,0,1,1-2,4.72,4.72,0,0,1,4.63-.32,2.81,2.81,0,0,1,1.23,1.32l-1.84.91a1.35,1.35,0,0,0-.51-.73,1.61,1.61,0,0,0-.93-.25,1.51,1.51,0,0,0-.89.23.69.69,0,0,0-.35.59q0,.65,1.71,1.2l.31.1a5,5,0,0,1,2,1.08,2.17,2.17,0,0,1,.6,1.58,2.46,2.46,0,0,1-1,2,4.33,4.33,0,0,1-2.68.75,4.74,4.74,0,0,1-2.28-.5A2.5,2.5,0,0,1,91.23,72.31Z" style="fill:#fff"/><path d="M69.41,74.27c0,.38,2,.68,4.46.68s4.45-.3,4.45-.68-2-.69-4.45-.69S69.41,73.89,69.41,74.27Z" style="fill:#292525"/><circle cx="73.7" cy="69.45" r="4.82" style="fill:#ffc814"/><path d="M77.36,69.38a3.55,3.55,0,1,1-3.55-3.55A3.55,3.55,0,0,1,77.36,69.38Z" style="fill:#fbe600"/><path d="M74,72.69a3.55,3.55,0,0,1-2.63-5.92,3.55,3.55,0,1,0,5,5A3.57,3.57,0,0,1,74,72.69Z" style="fill:#eb8802"/><rect x="73.63" y="64.92" width="0.14" height="0.68" style="fill:#eda222"/><rect x="73.63" y="73.25" width="0.14" height="0.68" style="fill:#eb8802"/><rect x="77.52" y="69.35" width="0.68" height="0.14" style="fill:#eb8802"/><rect x="69.2" y="69.35" width="0.68" height="0.14" style="fill:#eb8802"/><rect x="76.3" y="66.41" width="0.68" height="0.14" transform="translate(-24.56 73.69) rotate(-45.01)" style="fill:#eb8802"/><rect x="70.42" y="72.3" width="0.68" height="0.14" transform="translate(-30.45 71.26) rotate(-45.02)" style="fill:#eb8802"/><rect x="76.57" y="72.03" width="0.14" height="0.68" transform="translate(-28.72 75.32) rotate(-44.96)" style="fill:#eb8802"/><rect x="70.69" y="66.14" width="0.14" height="0.68" transform="translate(-26.28 69.46) rotate(-44.97)" style="fill:#eb8802"/><rect x="74.94" y="65.5" width="0.68" height="0.14" transform="translate(-13.96 110.32) rotate(-67.69)" style="fill:#eb8802"/><rect x="71.78" y="73.2" width="0.68" height="0.14" transform="translate(-23.06 112.16) rotate(-67.68)" style="fill:#eb8802"/><rect x="77.48" y="70.66" width="0.14" height="0.68" transform="translate(-17.59 115.78) rotate(-67.68)" style="fill:#eb8802"/><rect x="69.78" y="67.5" width="0.14" height="0.68" transform="translate(-19.43 106.7) rotate(-67.69)" style="fill:#eb8802"/><rect x="77.2" y="67.75" width="0.68" height="0.14" transform="translate(-20.17 35.19) rotate(-22.71)" style="fill:#eb8802"/><rect x="69.52" y="70.96" width="0.68" height="0.14" transform="translate(-21.98 32.43) rotate(-22.68)" style="fill:#eb8802"/><rect x="75.24" y="72.92" width="0.14" height="0.68" transform="translate(-22.43 34.7) rotate(-22.68)" style="fill:#eb8802"/><rect x="72.02" y="65.24" width="0.14" height="0.68" transform="translate(-19.7 32.84) rotate(-22.66)" style="fill:#eb8802"/><path d="M76,67.07c.77.78,1.06,1.92.8,2.17s-1.08-.18-1.85-1-1.18-1.62-.92-1.87S75.24,66.29,76,67.07Z" style="fill:#fff;opacity:0.62"/></g><g id="Slot"><g id="slot-2" data-name="slot"><rect x="67.19" y="35" width="14.84" height="22.09" style="fill:#ffc814"/><polygon points="72.19 56.71 72.45 50.48 72.76 50.48 73.01 56.71 72.19 56.71" style="fill:#b5732a"/><polygon points="76.36 56.71 76.62 50.48 76.93 50.48 77.19 56.71 76.36 56.71" style="fill:#b5732a"/><path d="M82.53,57.21H66.7V34.13H82.53Zm-14.84-1H81.54V35.12H67.69Z" style="fill:#b5732a"/><path d="M83.63,37.73h.64a13.82,13.82,0,0,1,5.92-4.11l1.06-7.85H85L83.74,36.44h0C83.72,36.88,83.68,37.31,83.63,37.73Z" style="fill:#fbe600"/><path d="M83.66,37.7h.61l0,0a14.07,14.07,0,0,1,2.65-2.52,13.29,13.29,0,0,1,3.23-1.75L90,33.6l.93-7.87.33.38c-.52-.06-1-.09-1.56-.13l-1.56-.08-1.56,0c-.52,0-1,0-1.56,0l0,0c-.12.89-.22,1.78-.33,2.66l-.33,2.67c-.21,1.78-.43,3.56-.63,5.34v0h0l0,0c0,.22,0,.43,0,.65l0,.32,0,.16v.08A.09.09,0,0,1,83.66,37.7Zm-.06,0v-.19l0-.16,0-.32c0-.21,0-.42,0-.64v0h0l0,0c.22-1.78.43-3.56.64-5.33l.32-2.67c.1-.89.21-1.78.3-2.67v0h0l1.56,0,1.56-.05,1.56-.08,1.56-.13.39,0-.06.42-1.2,7.83v.12l-.12,0A13,13,0,0,0,87,35.38a14.35,14.35,0,0,0-2.73,2.37v0h0Z" style="fill:#684018"/><path d="M89.43,27.18l-1.56.12-1.56.08-1.55.06-1.36,0,0,.1,1.33,0,1.55.06,1.56.08c.4,0,.79.06,1.19.09L88.2,35.1a1.88,1.88,0,0,1,.24.18l.12.12h0l1.19-7.84.06-.41Z" style="fill:#ffc814"/><path d="M86,57a14.43,14.43,0,0,1-.1-1.75c0-5.47,3-10.15,7.16-12V33h-.23a12.16,12.16,0,0,0-2.62.6,13.82,13.82,0,0,0-5.92,4.11,17,17,0,0,0-3.88,8.76l-.18,3.12L79.8,57Z" style="fill:#fbe600"/><path d="M91.45,36h-.21a9.65,9.65,0,0,0-3.59,1.2,10.81,10.81,0,0,0-2.9,2.4,12.55,12.55,0,0,0-2,3.17,13.28,13.28,0,0,0-1,3.6h0L81.43,56.9h.33l.49-10.47a13.22,13.22,0,0,1,1-3.44,11.9,11.9,0,0,1,1.95-3A10.34,10.34,0,0,1,88,37.78a9.09,9.09,0,0,1,3.12-1l0,1.74h.63l.06-2.14V36Z" style="fill:#ffc814"/><path d="M91.13,40.92l0,.76a13,13,0,0,0-3.86,2.61,14.56,14.56,0,0,0-2.86,3.86,15.44,15.44,0,0,0-1.51,4.52,15.86,15.86,0,0,0-.24,2.38,11.81,11.81,0,0,0,0,1.19l0,.49h.87c0-.18,0-.35,0-.53,0-.38,0-.76,0-1.14a15.54,15.54,0,0,1,.19-2.26,15.14,15.14,0,0,1,1.37-4.34,13.84,13.84,0,0,1,2.67-3.73,12.6,12.6,0,0,1,3.81-2.63h0l.17-.07v-.18l0-.93Z" style="fill:#ffc814"/><path d="M85.7,56.74a.18.18,0,0,0-.09.1s0,.11,0,.06v-.13l0-.26a4.71,4.71,0,0,1,0-.53c0-.35,0-.71,0-1.06a14.79,14.79,0,0,1,.21-2.1,13.85,13.85,0,0,1,1.3-4,12.87,12.87,0,0,1,2.44-3.42A11.66,11.66,0,0,1,92.94,43h0l-.15.23L92.54,33l.5.49h-.17a12.19,12.19,0,0,0-4.5,1.41,14,14,0,0,0-3.71,3,16.1,16.1,0,0,0-2.6,4,17.4,17.4,0,0,0-1.36,4.62v0L80,57h0l-.22-.22,3-.06C83.75,56.71,84.72,56.72,85.7,56.74Zm.57.5c-1.09,0-2.17,0-3.26,0l-3.21,0h-.22V57h0l.49-10.51h0a18.41,18.41,0,0,1,1.32-4.83,17,17,0,0,1,2.66-4.26,14.69,14.69,0,0,1,3.88-3.22,13.22,13.22,0,0,1,4.81-1.61h.79V33l-.25,10.22v.15l-.14.07h0a10.81,10.81,0,0,0-3.27,2.32,12.64,12.64,0,0,0-2.29,3.31,13.55,13.55,0,0,0-1.17,3.84,15,15,0,0,0-.17,2c0,.33,0,.67,0,1,0,.17,0,.34,0,.51l0,.25v.12a.53.53,0,0,1,0,.19A.69.69,0,0,1,86.27,57.24Z" style="fill:#684018"/><path d="M65.68,37.73H65a13.88,13.88,0,0,0-5.92-4.11l-1.06-7.85h6.23l1.28,10.67h0C65.59,36.88,65.63,37.31,65.68,37.73Z" style="fill:#fbe600"/><path d="M65.7,37.75l-.66,0h0v0a14.66,14.66,0,0,0-2.73-2.37,13.05,13.05,0,0,0-3.23-1.57l-.11,0,0-.12-1.19-7.83-.07-.42.4,0,1.56.13,1.55.08,1.56.05,1.56,0h0v0c.09.89.2,1.78.3,2.67L65,31.11c.21,1.77.42,3.55.65,5.33l0,0h0v0c0,.22,0,.43,0,.64l0,.32v.25A.17.17,0,0,1,65.7,37.75Zm0,0s0,0,0-.05v-.24l0-.32c0-.22,0-.43,0-.65l0,0h0v0l-.63-5.34-.33-2.67-.33-2.66,0,0c-.52,0-1,0-1.56,0l-1.56,0L59.62,26c-.52,0-1,.07-1.56.13l.33-.38.92,7.87-.13-.16a12.94,12.94,0,0,1,3.23,1.75,14.07,14.07,0,0,1,2.65,2.52l0,0Z" style="fill:#684018"/><path d="M59.88,27.18c.51.05,1,.09,1.55.12l1.56.08c.52,0,1,0,1.56.06l1.35,0s0,.07,0,.1l-1.33,0c-.52,0-1,0-1.56.06l-1.56.08-1.18.09.85,7.29a1.3,1.3,0,0,0-.23.18l-.13.12h0l-1.2-7.84-.06-.41Z" style="fill:#ffc814"/><path d="M63.32,57a14.42,14.42,0,0,0,.11-1.75c0-5.47-3-10.15-7.16-12V33h.23a12.3,12.3,0,0,1,2.62.6A13.88,13.88,0,0,1,65,37.73a17.07,17.07,0,0,1,3.88,8.76l.17,3.12L69.5,57Z" style="fill:#fbe600"/><path d="M57.86,36h.21a9.71,9.71,0,0,1,3.59,1.2,10.92,10.92,0,0,1,2.89,2.4,12.58,12.58,0,0,1,2,3.17,13.63,13.63,0,0,1,1,3.6h0l.35,10.51h-.32l-.5-10.47A12.84,12.84,0,0,0,66,43a11.87,11.87,0,0,0-1.94-3,10.38,10.38,0,0,0-2.77-2.21,9.11,9.11,0,0,0-3.11-1l0,1.74h-.63l0-2.14V36Z" style="fill:#ffc814"/><path d="M58.17,40.92l0,.76A13.07,13.07,0,0,1,62,44.29a14.52,14.52,0,0,1,2.85,3.86,15.46,15.46,0,0,1,1.52,4.52,15.86,15.86,0,0,1,.24,2.38c0,.39,0,.79,0,1.19a4,4,0,0,1,0,.49h-.87c0-.18,0-.35,0-.53q0-.57,0-1.14a17.08,17.08,0,0,0-.19-2.26,15.16,15.16,0,0,0-1.38-4.34,14,14,0,0,0-2.66-3.73,12.73,12.73,0,0,0-3.81-2.63h0L57.58,42v-.18l0-.93Z" style="fill:#ffc814"/><path d="M63,57.24A.52.52,0,0,1,63,57a1.05,1.05,0,0,1,0-.19l0-.12,0-.25c0-.17,0-.34,0-.51,0-.33,0-.67,0-1a15,15,0,0,0-.16-2,13.57,13.57,0,0,0-1.18-3.84,12.6,12.6,0,0,0-2.28-3.31,11.07,11.07,0,0,0-3.27-2.32h0L56,43.39v-.15L55.77,33v-.5h.79a13.1,13.1,0,0,1,4.81,1.61,14.73,14.73,0,0,1,3.89,3.22,16.69,16.69,0,0,1,2.65,4.26,18.05,18.05,0,0,1,1.33,4.83h0L69.72,57h0v.22H69.5l-3.21,0C65.21,57.27,64.12,57.26,63,57.24Zm.56-.5c1,0,2,0,2.93,0l3,.06-.21.22h0l-.68-10.49v0a17.78,17.78,0,0,0-1.36-4.62,15.86,15.86,0,0,0-2.61-4,14,14,0,0,0-3.71-3,12.14,12.14,0,0,0-4.49-1.41h-.17l.49-.49-.25,10.22L56.37,43h0a11.49,11.49,0,0,1,3.46,2.38,13.13,13.13,0,0,1,2.45,3.42,14.49,14.49,0,0,1,1.3,4,14.78,14.78,0,0,1,.2,2.1c0,.35,0,.71,0,1.06l0,.53,0,.26v.13c0,.05,0,0,0-.06A.24.24,0,0,0,63.6,56.74Z" style="fill:#684018"/><path d="M68.61,46.51l.12,1.91A20.86,20.86,0,0,1,66,42.93c-.35-1-.67-2.07-1-3.19-.16-.62-.3-1.25-.44-1.9l0,0a15.86,15.86,0,0,1,2.61,4A17.64,17.64,0,0,1,68.61,46.51Z" style="fill:#a67d0c"/><path d="M81,42.62a18.14,18.14,0,0,0-.93,3.83v0L80,49.31a6.75,6.75,0,0,1-5,2.56.22.22,0,0,1-.08,0h-.26a6.9,6.9,0,0,1-5.21-2.67l-.13-2.73v0a17.82,17.82,0,0,0-.93-3.81c1.89,3,4.06,4.7,6.35,4.7S79.11,45.63,81,42.62Z" style="fill:#a67d0c"/><path d="M84.66,37.89l.07-.08-.12.59,0,.16c-.06.25-.11.48-.17.72h0a37,37,0,0,1-1,3.64,20.48,20.48,0,0,1-2.79,5.6l.13-2a17.27,17.27,0,0,1,1.36-4.6A16.1,16.1,0,0,1,84.66,37.89Z" style="fill:#a67d0c"/><path d="M81.4,41.62c-.14.33-.27.66-.39,1a29.27,29.27,0,0,0,2-3.89A17,17,0,0,0,81.4,41.62Z" style="fill:#684018"/><path d="M67.9,41.62a17.18,17.18,0,0,0-1.65-3,28.29,28.29,0,0,0,2,4C68.18,42.3,68.05,42,67.9,41.62Z" style="fill:#684018"/><path d="M89.94,7.29a2.71,2.71,0,0,1,0,.29L89.86,8,87.13,25.65v.07l-1.53,9.71h0a26.53,26.53,0,0,1-1.12,4,13.28,13.28,0,0,1-3.89,5.77,9.34,9.34,0,0,1-5.93,2h0c-4.62,0-7.9-2.72-9.81-7.77a25.26,25.26,0,0,1-1.12-4h0l-1.53-9.71v-.07L59.45,8l-.07-.46a2.64,2.64,0,0,1,0-.29,4.56,4.56,0,0,1,1.91-3.42A12.39,12.39,0,0,1,64.51,2a19.3,19.3,0,0,1,2.26-.77,29.73,29.73,0,0,1,7.88-1h0c5.2,0,9.78,1.22,12.54,3.05a9.83,9.83,0,0,1,.85.62,6.18,6.18,0,0,1,1.44,1.69c.06.12.12.24.17.36A3.48,3.48,0,0,1,89.94,7.29Z" style="fill:#ffc814"/><path d="M86.94,9.1l-.08,1L85.46,27.3H63.85l-1.4-17.23-.08-1a3.25,3.25,0,0,1,1.31-2H85.62A3.27,3.27,0,0,1,86.94,9.1Z" style="fill:#ffc814"/><path d="M86.92,9.41a2.05,2.05,0,0,1-.1.65c-.78,2.47-5.93,4.38-12.17,4.38s-11.38-1.91-12.16-4.38a2.06,2.06,0,0,1-.11-.65,1.63,1.63,0,0,1,0-.31,3.23,3.23,0,0,1,1.31-2c2-1.63,6.16-2.75,10.93-2.75S83.56,5.5,85.59,7.13a3.28,3.28,0,0,1,1.31,2C86.91,9.2,86.92,9.31,86.92,9.41Z" style="fill:#ffc814"/><path d="M83.1,5.86C81.36,4.8,78.19,4.1,74.61,4.09h0c-3.58,0-6.74.71-8.48,1.77a2.58,2.58,0,0,0-1.42,1.71s0,.1,0,.15l0,.24.78,10.22v.05L66,25h0a18.28,18.28,0,0,0,.64,3.07c1.29,4.19,4,6.58,7.93,6.59h0c4,0,6.65-2.4,7.93-6.58A18.6,18.6,0,0,0,83.19,25h0l.53-6.8v0L84.5,8l0-.24a.76.76,0,0,0,0-.15A2.54,2.54,0,0,0,83.1,5.86Z" style="fill:#fbe600"/><path d="M89.92,7.6c-.06.35-.12.74-.18,1.15l-.16-.16L87,24.13l.39-4.94q.24-2.85.46-5.7a34.91,34.91,0,0,0,.31-3.82,5.81,5.81,0,0,0-1-3.3A11.44,11.44,0,0,0,84.51,4a16.22,16.22,0,0,0-5.15-2.25c-.38-.1-4.68-.8-4.68-.55v-1C80.43.23,85.43,1.71,88,3.89A4.36,4.36,0,0,1,89.92,7.6Z" style="fill:#eb8802"/><path d="M59.39,7.6c0,.35.11.74.17,1.15l.17-.16,2.59,15.54-.4-4.94q-.22-2.85-.46-5.7a34.91,34.91,0,0,1-.31-3.82,5.82,5.82,0,0,1,1-3.3A11.39,11.39,0,0,1,64.79,4,16.28,16.28,0,0,1,70,1.76c.37-.1,4.68-.8,4.68-.55v-1c-5.76,0-10.76,1.5-13.35,3.68A4.33,4.33,0,0,0,59.39,7.6Z" style="fill:#eb8802"/><ellipse cx="74.54" cy="38.78" rx="7.3" ry="7.8" style="fill:#ffc814"/><ellipse cx="74.54" cy="29.42" rx="7.3" ry="7.8" style="fill:#fbe600"/><path d="M86.8,27.73c-.48,3.05-.91,5.78-1.21,7.7h0a20.39,20.39,0,0,1-2.23,6.34,6.17,6.17,0,0,1-.87,0A7.55,7.55,0,0,1,75.2,34a7.55,7.55,0,0,1,7.29-7.8A6.94,6.94,0,0,1,86.8,27.73Z" style="fill:#ffc814"/><path d="M87.1,25.74h0q-.16.87-.3,1.71l-1.21,6.87h0c-.07.3-.13.6-.21.9a17.69,17.69,0,0,1-1,2.79h0c-.45.52-.92,1-1.41,1.48a19.07,19.07,0,0,1-1.62,1.38,8.48,8.48,0,0,1-1-.25,7.54,7.54,0,0,1-4.84-10.11,9,9,0,0,1,11-5C86.74,25.6,86.92,25.67,87.1,25.74Z" style="fill:#ffc814"/><path d="M68.78,40.64c-.32.1-.64.18-1,.25A19.73,19.73,0,0,1,65,38.27a18,18,0,0,1-1.29-3.94h0c-.11-.6-.23-1.3-.37-2.06-.25-1.41-.53-3-.84-4.82h0c-.1-.57-.2-1.15-.31-1.74.15-.05.29-.11.44-.15a9,9,0,0,1,11,5A7.54,7.54,0,0,1,68.78,40.64Z" style="fill:#ffc814"/><path d="M70.55,25.24l.58.05.58.1a6.65,6.65,0,0,1,1.13.34,7.24,7.24,0,0,1,2,1.21h-.46a7.51,7.51,0,0,1,2-1.22,6.65,6.65,0,0,1,1.13-.34,3.91,3.91,0,0,1,.58-.1l.58-.05,0,.26-.55.09-.54.15a7.62,7.62,0,0,0-1,.41,6.81,6.81,0,0,0-1.76,1.3l-.23.23-.23-.23h0a6.68,6.68,0,0,0-1.76-1.31,8.54,8.54,0,0,0-1-.42l-.54-.14-.55-.1Z" style="fill:#684018"/><path d="M74.1,34a7.56,7.56,0,0,1-7.3,7.8,6.11,6.11,0,0,1-.86,0,20.38,20.38,0,0,1-2.22-6.34h0c-.31-1.94-.74-4.66-1.21-7.71h0a6.94,6.94,0,0,1,4.29-1.49A7.56,7.56,0,0,1,74.1,34Z" style="fill:#ffc814"/><ellipse cx="79.73" cy="32.8" rx="3.19" ry="2.11" transform="translate(-5.76 21.67) rotate(-14.94)" style="fill:#fdfae6"/><path d="M82.91,32a1.66,1.66,0,0,1-.08,1.1,2.61,2.61,0,0,1-.63.9,4.68,4.68,0,0,1-4.06,1.16,2.75,2.75,0,0,1-1-.45,1.89,1.89,0,0,1-.71-1,1.86,1.86,0,0,1,.13-1.19,2.69,2.69,0,0,1,.68-.91,4.7,4.7,0,0,1,4.1-1,2.66,2.66,0,0,1,1,.47A1.67,1.67,0,0,1,82.91,32Zm-.19.05a1.57,1.57,0,0,0-.57-.77,2.51,2.51,0,0,0-.92-.39,4.24,4.24,0,0,0-2,.1,4.17,4.17,0,0,0-1.73,1,2.43,2.43,0,0,0-.54.78,1.45,1.45,0,0,0-.07.87,1.37,1.37,0,0,0,.49.71,2.44,2.44,0,0,0,.86.41,4.32,4.32,0,0,0,2,0A4.25,4.25,0,0,0,82,33.75a2.48,2.48,0,0,0,.6-.8A1.55,1.55,0,0,0,82.72,32Z" style="fill:#684018"/><ellipse cx="69.35" cy="32.8" rx="2.11" ry="3.19" transform="translate(19.77 91.34) rotate(-75.06)" style="fill:#fdfae6"/><path d="M66.36,32a1.41,1.41,0,0,0,.11,1,2.45,2.45,0,0,0,.59.8,4.37,4.37,0,0,0,3.77.93,2.29,2.29,0,0,0,.86-.41,1.29,1.29,0,0,0,.42-1.58,2.28,2.28,0,0,0-.54-.78,4.11,4.11,0,0,0-1.73-1,4.24,4.24,0,0,0-2-.1,2.4,2.4,0,0,0-.91.39A1.46,1.46,0,0,0,66.36,32Zm-.2-.05a1.72,1.72,0,0,1,.62-.91,2.73,2.73,0,0,1,1-.47,4.51,4.51,0,0,1,2.16,0,4.4,4.4,0,0,1,1.94,1,2.71,2.71,0,0,1,.69.91,1.79,1.79,0,0,1,.12,1.19,1.93,1.93,0,0,1-.7,1,2.79,2.79,0,0,1-1,.45,4.54,4.54,0,0,1-2.17-.1A4.6,4.6,0,0,1,66.87,34a2.46,2.46,0,0,1-.62-.9A1.73,1.73,0,0,1,66.16,32Z" style="fill:#684018"/><ellipse cx="74.65" cy="40.61" rx="4.17" ry="2.13" style="fill:#fbe600"/><path d="M75.79,30.48a6.34,6.34,0,0,1,1.11-2A6.9,6.9,0,0,1,78.63,27a6.56,6.56,0,0,1,2.13-.85,5.93,5.93,0,0,1,2.26,0l0,.3a8.27,8.27,0,0,0-2.11.3,9.1,9.1,0,0,0-1,.37c-.15.07-.31.14-.47.23l-.23.12-.22.14a8.68,8.68,0,0,0-1.62,1.34,11,11,0,0,0-1.29,1.71Z" style="fill:#684018"/><path d="M73.16,30.61a11,11,0,0,0-1.3-1.71,8.62,8.62,0,0,0-1.61-1.34L70,27.42l-.23-.12a4.09,4.09,0,0,0-.47-.23,8.38,8.38,0,0,0-1-.37,8.13,8.13,0,0,0-2.1-.3l0-.3a6,6,0,0,1,2.27,0A6.65,6.65,0,0,1,70.6,27a6.86,6.86,0,0,1,1.72,1.5,6.34,6.34,0,0,1,1.11,2Z" style="fill:#684018"/><path d="M76.58,19.37H72.72a1.18,1.18,0,0,1-1.18-1.19l.21-9.59a1.1,1.1,0,0,1,1.13-1h3.55a1.1,1.1,0,0,1,1.13,1l.2,9.59A1.17,1.17,0,0,1,76.58,19.37Z" style="fill:#ebae20"/><rect x="72.16" y="6.98" width="4.96" height="11.33" rx="1.18" style="fill:#f5eb21"/><path d="M76.24,9.09v0H73v0a1.18,1.18,0,0,1,1.17-1.18h.86A1.18,1.18,0,0,1,76.24,9.09Z" style="fill:#fdfae6"/><path d="M73,16.29v0h3.2v0a1.18,1.18,0,0,1-1.17,1.18h-.86A1.18,1.18,0,0,1,73,16.29Z" style="fill:#eda222"/><path d="M75.94,18.58c-.63,0-1.27,0-1.9,0h-.72a1.53,1.53,0,0,1-.3,0,1.45,1.45,0,0,1-.91-.68,1.28,1.28,0,0,1-.18-.54,3,3,0,0,1,0-.51v-1l0-1.91,0-3.81,0-1.91a1.53,1.53,0,0,1,.08-.52,1.48,1.48,0,0,1,.28-.45,1.34,1.34,0,0,1,1-.41H76a1.24,1.24,0,0,1,.27,0,1.31,1.31,0,0,1,.84.61,1.43,1.43,0,0,1,.18.5,4.09,4.09,0,0,1,0,.49v1l0,1.91.06,3.81,0,1.91a.28.28,0,0,1,0,.13.76.76,0,0,1,0,.15,2.15,2.15,0,0,1-.07.28,1.34,1.34,0,0,1-.3.5A1.42,1.42,0,0,1,75.94,18.58Zm0-.56a.86.86,0,0,0,.66-.27.79.79,0,0,0,.2-.31l0-.09a.29.29,0,0,0,0-.09.28.28,0,0,0,0-.09v-.11l0-1.91,0-3.81,0-1.91v-1c0-.15,0-.32,0-.45a1.12,1.12,0,0,0-.14-.4,1,1,0,0,0-.66-.48l-.21,0h-.71c-.64,0-1.28,0-1.91,0a1.06,1.06,0,0,0-.75.33,1,1,0,0,0-.28.78v1.91l.05,3.81,0,1.91v1c0,.15,0,.33,0,.44a1.14,1.14,0,0,0,.13.35.92.92,0,0,0,.59.41l.18,0h2.62Z" style="fill:#684018"/><path d="M75.38,15.15H73.9a.48.48,0,0,1-.48-.49l.13-4.06a.43.43,0,0,1,.45-.38h1.28a.42.42,0,0,1,.45.38l.13,4.06A.48.48,0,0,1,75.38,15.15Z" style="fill:#684018"/><path d="M69.37,19.6l-3.49.54a1,1,0,0,1-1.2-1V9.6a1.21,1.21,0,0,1,1.08-1.09l3.13-.43A.89.89,0,0,1,70,8.85l.49,9.45A1.32,1.32,0,0,1,69.37,19.6Z" style="fill:#ebae20"/><path d="M69.19,18.59l-3.13.51a.84.84,0,0,1-1-.84l-.22-9.52a.9.9,0,0,1,.73-.88l3.13-.51a.85.85,0,0,1,1,.84l.22,9.52A.9.9,0,0,1,69.19,18.59Z" style="fill:#f5eb21"/><path d="M68.82,18.89c-.61.11-1.23.21-1.85.3l-.23,0-.12,0h-.13a1.71,1.71,0,0,1-.55-.05,1.46,1.46,0,0,1-.86-.64,1.48,1.48,0,0,1-.21-.5,2.32,2.32,0,0,1-.05-.51v-.93l0-1.88L64.74,11l0-1.88a1.51,1.51,0,0,1,1.23-1.44l1.86-.3a3.31,3.31,0,0,1,.47-.07,1.26,1.26,0,0,1,.51,0,1.36,1.36,0,0,1,.81.58,1.33,1.33,0,0,1,.21.47,2.07,2.07,0,0,1,0,.49l0,.94.06,1.88.13,3.75.07,1.88A1.62,1.62,0,0,1,68.82,18.89Zm-.07-.47a1.16,1.16,0,0,0,1-1.08l0-1.87,0-3.76,0-1.87V8.9a2.06,2.06,0,0,0,0-.44,1.13,1.13,0,0,0-.17-.39,1.15,1.15,0,0,0-.67-.49,1.46,1.46,0,0,0-.42,0l-.46.06L66,7.92a1.25,1.25,0,0,0-1,1.2c0,.61,0,1.25,0,1.87l.12,3.75.07,1.88,0,.93a1.85,1.85,0,0,0,0,.43,1,1,0,0,0,.16.35,1.07,1.07,0,0,0,.62.44,1.29,1.29,0,0,0,.39,0l.1,0,.11,0,.23,0Z" style="fill:#684018"/><path d="M68.06,15.38l-1.26.21a.36.36,0,0,1-.43-.36V11.54a.45.45,0,0,1,.39-.42L67.89,11a.34.34,0,0,1,.41.3l.16,3.64A.49.49,0,0,1,68.06,15.38Z" style="fill:#684018"/><path d="M68.6,9.28h-.09l-2.8.42-.19,0V9.22a.8.8,0,0,1,.62-.78L68,8.14a.55.55,0,0,1,.63.57Z" style="fill:#fdfae6"/><path d="M65.84,17h.09l2.8-.42.19-.05v.54a.81.81,0,0,1-.62.78l-1.83.3a.54.54,0,0,1-.63-.57Z" style="fill:#eda222"/><path d="M79.94,19.6l3.49.54a1,1,0,0,0,1.19-1V9.6a1.2,1.2,0,0,0-1.07-1.09l-3.14-.43a.9.9,0,0,0-1.11.77l-.49,9.45A1.32,1.32,0,0,0,79.94,19.6Z" style="fill:#ebae20"/><path d="M80.52,18.66l2.19.35a1.3,1.3,0,0,0,1.56-1.29l.2-8.57A1.38,1.38,0,0,0,83.34,7.8l-2.19-.36a1.31,1.31,0,0,0-1.56,1.29l-.2,8.57A1.41,1.41,0,0,0,80.52,18.66Z" style="fill:#f5eb21"/><path d="M80.56,18.42l1.85.3.23,0,.12,0,.1,0a1.2,1.2,0,0,0,.38,0,1.13,1.13,0,0,0,.63-.44A1,1,0,0,0,84,18a2.55,2.55,0,0,0,0-.43l0-.93.06-1.88L84.28,11c0-.62,0-1.26.06-1.87a1.27,1.27,0,0,0-1-1.2l-1.85-.31L81,7.55a1.53,1.53,0,0,0-.43,0,1.19,1.19,0,0,0-.67.49,1.36,1.36,0,0,0-.17.39,2.08,2.08,0,0,0,0,.44l0,.94,0,1.87-.05,3.76,0,1.87A1.15,1.15,0,0,0,80.56,18.42Zm-.08.47a1.61,1.61,0,0,1-1.3-1.55l.06-1.88.13-3.75.06-1.88,0-.94a2.09,2.09,0,0,1,.05-.49,1.52,1.52,0,0,1,.2-.47,1.38,1.38,0,0,1,.82-.58,1.26,1.26,0,0,1,.51,0,3.54,3.54,0,0,1,.47.07l1.85.3A1.51,1.51,0,0,1,84.6,9.12l0,1.88,0,3.75,0,1.88v.93a2.28,2.28,0,0,1,0,.51,1.53,1.53,0,0,1-1.08,1.14,1.65,1.65,0,0,1-.54.05h-.14l-.11,0-.24,0Z" style="fill:#684018"/><path d="M81.25,15.38l1.25.21a.37.37,0,0,0,.44-.36V11.54a.46.46,0,0,0-.39-.42L81.41,11a.34.34,0,0,0-.4.3l-.17,3.64A.49.49,0,0,0,81.25,15.38Z" style="fill:#684018"/><path d="M80.71,9.28h.08l2.81.42.19,0V9.22a.79.79,0,0,0-.61-.78l-1.83-.3a.55.55,0,0,0-.64.57Z" style="fill:#fdfae6"/><path d="M83.46,17h-.08l-2.81-.42-.19-.05v.54a.79.79,0,0,0,.61.78l1.83.3a.55.55,0,0,0,.64-.57Z" style="fill:#eda222"/><path d="M62.13,25.62a28.09,28.09,0,0,1,3.06-1.2,31.86,31.86,0,0,1,3.13-.79,32.94,32.94,0,0,1,12.67,0,26.4,26.4,0,0,1,3.12.79,25.59,25.59,0,0,1,3.07,1.19l-.11.46A26.23,26.23,0,0,0,84,25a27.83,27.83,0,0,0-3.1-.72,36.67,36.67,0,0,0-12.54,0,30.82,30.82,0,0,0-3.1.71,24.54,24.54,0,0,0-3.05,1.07Z" style="fill:#eda222"/><path d="M89.76,6l-.11-.1C86.57,3.11,81.09,1.23,74.83,1.2h0a28,28,0,0,0-9,1.45A16.6,16.6,0,0,0,59.91,6a8.65,8.65,0,0,1,.54-.85A11,11,0,0,1,64.51,2a19.3,19.3,0,0,1,2.26-.77,29.73,29.73,0,0,1,7.88-1h0c5.2,0,9.78,1.22,12.54,3.05a10.36,10.36,0,0,1,1.36,1.16,9.76,9.76,0,0,1,.93,1.15C89.58,5.71,89.68,5.87,89.76,6Z" style="fill:#fdfae6"/><path d="M63.47,33.85c.18.48.37.94.58,1.39l-.37,0c0-.29-.09-.61-.15-.94Z" style="fill:#eb8802"/><path d="M84.15,40.17a11.44,11.44,0,0,1-.79,1.61c-1.81,3.17-4.58,5.38-8.45,5.4h-.34c-3.93,0-6.75-2.23-8.59-5.4a16.87,16.87,0,0,1-.8-1.59q.76-.33,1.35-.63c2.25,3.07,5.07,4.88,8.12,4.88s5.88-1.82,8.14-4.9C83.18,39.74,83.63,40,84.15,40.17Z" style="fill:#eb8802"/><path d="M85.85,33.78c-.08.52-.16,1-.22,1.44l-.39,0C85.46,34.77,85.66,34.28,85.85,33.78Z" style="fill:#eb8802"/><path d="M62.13,25.57c1-.34,2-.62,3.06-.86s2.08-.42,3.13-.57a46.33,46.33,0,0,1,6.33-.44,48,48,0,0,1,6.34.43q1.58.23,3.12.57c1,.24,2.06.52,3.07.85l-.11.33c-1-.3-2-.55-3-.76s-2.06-.38-3.1-.51a48.53,48.53,0,0,0-6.27-.39,47,47,0,0,0-6.27.39c-1,.13-2.07.3-3.1.51a28.91,28.91,0,0,0-3.05.76Z" style="fill:#684018"/><rect x="94.38" y="21.6" width="1.24" height="17.1" transform="translate(3.14 -8.52) rotate(5.22)" style="fill:#684018"/><polygon points="92.98 39.89 95.12 39.4 95.54 35.58 93.17 35.51 92.98 39.89" style="fill:#684018"/><circle cx="95.76" cy="22.02" r="1.94" style="fill:#fbe600"/><circle cx="95.65" cy="21.36" r="1.3" style="fill:#fdfae6"/><path d="M98,22a2.14,2.14,0,0,1-.74,1.53,2.42,2.42,0,0,1-1.53.58,2.21,2.21,0,0,1-1.52-.58A2.25,2.25,0,0,1,93.51,22a2.21,2.21,0,0,1,.12-.88,2.15,2.15,0,0,1,.47-.78,2.28,2.28,0,0,1,.75-.55,2.56,2.56,0,0,1,.91-.2,2.18,2.18,0,0,1,1.68.73A2.36,2.36,0,0,1,98,22Zm-.66,0A1.53,1.53,0,0,0,96.83,21a1.77,1.77,0,0,0-1.07-.4,1.39,1.39,0,0,0-.57.09,1.32,1.32,0,0,0-.51.3A1.56,1.56,0,0,0,94.13,22a1.6,1.6,0,0,0,.41,1.22,1.64,1.64,0,0,0,1.22.55A1.56,1.56,0,0,0,97,23.24,1.74,1.74,0,0,0,97.37,22Z" style="fill:#684018"/><path d="M66.53,39.56q-.59.3-1.35.63c-.06-.11-.1-.22-.15-.33-.15-.35-.28-.7-.41-1.06A22.76,22.76,0,0,1,64,36.58a3.57,3.57,0,0,1-.11-.47c0-.22-.1-.45-.14-.67h0c0-.07,0-.14,0-.22l.37,0A21.33,21.33,0,0,0,66.53,39.56Z" style="fill:#da6f04"/><path d="M64.28,37.73c.1.36.22.72.34,1.07l-.25-.72C64.33,38,64.31,37.84,64.28,37.73Z" style="fill:#eda222"/><path d="M64,36.58a11.48,11.48,0,0,0,.31,1.15C64.16,37.35,64.06,37,64,36.58Z" style="fill:#eda222"/><path d="M65,39.86c0,.11.09.22.15.33l-.08,0-.48-1.42C64.75,39.16,64.88,39.51,65,39.86Z" style="fill:#eda222"/><path d="M66.53,39.56a21.33,21.33,0,0,1-2.48-4.32C66.82,35.54,71.82,36.83,66.53,39.56Z" style="fill:#eda222"/><path d="M85.63,35.22a1.55,1.55,0,0,0,0,.21h0a22.58,22.58,0,0,1-1,3.61l0,.1c-.06.14-.11.29-.17.43a6.21,6.21,0,0,1-.26.59c-.52-.22-1-.43-1.36-.63a22.28,22.28,0,0,0,2.45-4.29Z" style="fill:#da6f04"/><path d="M85.24,35.25a22.28,22.28,0,0,1-2.45,4.29C77.63,36.85,82.46,35.56,85.24,35.25Z" style="fill:#eda222"/><path d="M85.69,35.21c0,.08,0,.15,0,.22h0A22.61,22.61,0,0,1,85,38.08l-.73,2.14-.12,0a6.21,6.21,0,0,0,.26-.59c.06-.14.11-.29.17-.43l0-.1a22.58,22.58,0,0,0,1-3.61h0a1.55,1.55,0,0,1,0-.21Z" style="fill:#eda222"/><path d="M90.19,7.62,89,16.76c-.21,1.53-.4,3.06-.63,4.58-.12.76-.27,1.51-.4,2.27l-.42,2.27v-.06h0v.06c-.3,1.6-.61,3.19-.89,4.79-.14.8-.27,1.6-.41,2.4s-.26,1.6-.38,2.4v0h0v.05c-.13.71-.28,1.42-.47,2.12q-.13.53-.3,1c-.1.35-.22.69-.35,1l0-.12h0v.05l0,.07a16.74,16.74,0,0,1-1.43,3,11.16,11.16,0,0,1-2.15,2.65,9.18,9.18,0,0,1-3,1.81l-.41.15-.42.12-.21.06-.22,0-.43.09c-.29,0-.58.08-.87.1l-.43,0h-.59a11.25,11.25,0,0,1-2.31-.24,9.37,9.37,0,0,1-2.18-.81,10.85,10.85,0,0,1-1-.6l-.47-.35-.44-.37a11.13,11.13,0,0,1-1.52-1.7,15.75,15.75,0,0,1-2-4,26.46,26.46,0,0,1-1.12-4.26v0h0v0c-.09-.65-.2-1.29-.3-1.93s-.22-1.29-.32-1.93-.23-1.28-.35-1.92l-.36-1.92h0v0h0v.05c-.32-1.67-.64-3.34-.95-5L61,21.51l-.06-.31a1.8,1.8,0,0,1-.06-.32c0-.1,0-.21,0-.31a3.16,3.16,0,0,0,0-.32l-.34-2.53-.67-5c-.22-1.68-.46-3.36-.7-5v0a4.37,4.37,0,0,1,.62-2.34,5.23,5.23,0,0,1,.72-1,9.48,9.48,0,0,1,.88-.8,11.9,11.9,0,0,1,2-1.23,17.4,17.4,0,0,1,2.16-.87A27.32,27.32,0,0,1,70,.33,29.87,29.87,0,0,1,74.66,0a32.56,32.56,0,0,1,4.62.36,26,26,0,0,1,4.52,1A15.58,15.58,0,0,1,86,2.3a10.81,10.81,0,0,1,2,1.22,6.62,6.62,0,0,1,.89.79,6.13,6.13,0,0,1,.74.94A3.9,3.9,0,0,1,90.19,7.62Zm-.53-.07a3.15,3.15,0,0,0-.08-1,4.23,4.23,0,0,0-.41-1,6.23,6.23,0,0,0-1.5-1.62,10.73,10.73,0,0,0-1.9-1.21,16.07,16.07,0,0,0-2.1-.88A24.08,24.08,0,0,0,79.22.72,31.69,31.69,0,0,0,74.66.39a30.4,30.4,0,0,0-4.57.37,26.8,26.8,0,0,0-4.44,1.05,13.46,13.46,0,0,0-4,2.05A5.85,5.85,0,0,0,60.16,5.5a3.92,3.92,0,0,0-.51,2.08v0c.28,1.68.56,3.35.86,5l.89,5,.44,2.51.06.31c0,.11.06.21.08.31A1.73,1.73,0,0,1,62,21c0,.11,0,.21,0,.32l.16,1.26.61,5.06v0h0v0l.24,1.94c.09.64.17,1.29.27,1.93s.18,1.29.28,1.93.19,1.29.3,1.93v0h0v0a18.94,18.94,0,0,0,1.28,4.12,16.35,16.35,0,0,0,1,1.9,15.16,15.16,0,0,0,1.23,1.71,10.12,10.12,0,0,0,3.2,2.57,8.57,8.57,0,0,0,1.92.67,10.48,10.48,0,0,0,2,.2h1c.25,0,.51,0,.76-.09l.38-.06.19,0,.18,0,.38-.09.36-.12c.24-.07.47-.19.71-.28l.35-.17c.11-.06.23-.11.34-.18s.44-.26.65-.41l.31-.23.31-.24.3-.25.29-.26c.18-.19.37-.37.54-.57l.27-.29c.08-.1.16-.21.25-.31a7.52,7.52,0,0,0,.47-.64,15,15,0,0,0,1.56-2.8l0,.11h0v-.07l0,0q.21-.49.39-1c.12-.33.23-.67.34-1a20.8,20.8,0,0,0,.5-2.07v0h0v0h0c.14-.8.26-1.61.38-2.41s.24-1.6.35-2.41c.22-1.6.41-3.21.61-4.82v.06h0v-.07L87,23.46c.11-.76.19-1.52.31-2.28.25-1.52.52-3,.78-4.54Z" style="fill:#684018"/><rect x="60.23" y="56.82" width="28.86" height="2.26" style="fill:#684018"/><rect x="58.17" y="58.39" width="32.99" height="2.26" style="fill:#684018"/></g><g id="eys"><path d="M66.94,32.82Z" style="fill:#fbe600"/><path d="M68.35,31.34a.06.06,0,0,0,0-.11,1.84,1.84,0,0,0-1.37,1.59c0,.12.14.11.16,0a2.15,2.15,0,0,1,.49-1A7.55,7.55,0,0,1,68.35,31.34Z" style="fill:#fbe600"/><path d="M67.32,32.78s0,0,0,0Z" style="fill:#fbe600"/><path d="M68.48,31.73c.14,0,.23,0,.1-.14s-.47,0-.67.23a2.6,2.6,0,0,0-.59,1c0,.1.12.17.18,0a2.63,2.63,0,0,1,.39-.68C68,32,68.33,31.72,68.48,31.73Z" style="fill:#fbe600"/><path d="M67.32,32.8v0Z" style="fill:#fbe600"/><path d="M68.56,31.87a1.59,1.59,0,0,0-.81.75c-.06.1.1.18.18.07a2.34,2.34,0,0,1,.32-.4c.11-.1.3-.2.38-.29S68.64,31.86,68.56,31.87Z" style="fill:#fbe600"/><path d="M67.76,32.6Z" style="fill:#fbe600"/><path d="M67.75,32.62v0Z" style="fill:#fbe600"/><path d="M69.6,32.16a1,1,0,0,0-.84.18c-.05,0-.1,0-.14.07a.87.87,0,0,0,0,1.36.94.94,0,0,0,1.41-.32A.87.87,0,0,0,69.6,32.16Zm-1.21.8Z" style="fill:#fbe600"/><path d="M70.22,32a3.17,3.17,0,0,1,.35.85,1.94,1.94,0,0,1-.16,1,.07.07,0,0,0,.12.05,1.65,1.65,0,0,0-.17-2A.09.09,0,0,0,70.22,32Z" style="fill:#fbe600"/><path d="M71.12,32.48c0-.06-.16-.07-.14.05s.08.49.1.64a3.29,3.29,0,0,1-.08.74v0c0,.08.1.11.13,0A1.71,1.71,0,0,0,71.12,32.48Z" style="fill:#fbe600"/><path d="M82.14,32.82Z" style="fill:#fbe600"/><path d="M80.77,31.23a.06.06,0,0,0,0,.11,7.55,7.55,0,0,1,.76.54,2.15,2.15,0,0,1,.49,1c0,.09.19.1.16,0A1.84,1.84,0,0,0,80.77,31.23Z" style="fill:#fbe600"/><path d="M81.76,32.8v0Z" style="fill:#fbe600"/><path d="M81.76,32.78s0,0,0,0Z" style="fill:#fbe600"/><path d="M80.5,31.59c-.13.13,0,.15.1.14s.46.24.59.4a3,3,0,0,1,.39.68c.06.16.2.09.18,0a2.6,2.6,0,0,0-.59-1C81,31.61,80.64,31.46,80.5,31.59Z" style="fill:#fbe600"/><path d="M81.33,32.62Z" style="fill:#fbe600"/><path d="M80.52,31.87c-.08,0-.16.05-.07.13s.27.19.38.29a2.34,2.34,0,0,1,.32.4c.08.11.24,0,.18-.07A1.59,1.59,0,0,0,80.52,31.87Z" style="fill:#fbe600"/><path d="M80.32,32.34a1,1,0,0,0-.84-.18A.87.87,0,0,0,79,33.45a.94.94,0,0,0,1.41.32.87.87,0,0,0,0-1.36S80.37,32.37,80.32,32.34Zm.37.62Z" style="fill:#fbe600"/><path d="M78.72,31.88a1.65,1.65,0,0,0-.17,2,.07.07,0,0,0,.12-.05,1.94,1.94,0,0,1-.16-1,3.17,3.17,0,0,1,.35-.85A.09.09,0,0,0,78.72,31.88Z" style="fill:#fbe600"/><path d="M78.1,32.53c0-.12-.11-.11-.14-.05a1.71,1.71,0,0,0,0,1.45c0,.09.15.06.13,0h0a3.29,3.29,0,0,1-.08-.74C78,33,78.08,32.66,78.1,32.53Z" style="fill:#fbe600"/></g></g></g></svg>