<svg xmlns="http://www.w3.org/2000/svg" viewBox="0 0 445 140"><g id="Logo_Mobile"><g id="name"><path d="M61.21,41.91c.83,8.54,1.42,16.88,1.59,25.26l.08,2.63c.31,8,.46,15.66.79,23.37.29,6.25.66,12.32,1.07,18.51A149.41,149.41,0,0,0,67,128.37a11,11,0,0,1,.34,1.48,2.54,2.54,0,0,1-1,.56,16.11,16.11,0,0,1-2.42.58c-.46.65-.57,1.43-.7,1.49a4.31,4.31,0,0,1-1.81,1.66l-2.62.08c-1.33.72-1.37,2.36-1.82,3.74l-1.64,2c-5.68-6-11-12.33-16.09-18.62-4.5-5.34-8.92-10.87-13.11-16.19L5.5,78.3c1.31-2.49,4.46-3.09,6.57-4.74.82-.5,2.18-.78,2.22-2.43.11-.79-.55-2-.17-2.15.12,0,.3,0,.71.29,1.47,1,2.53,3.51,4,4.52s2.11.43,2.9.54c-2-2.87-5.06-5.25-4.8-7.44,2.5,3.09,5.21,5.63,7.64,8.89,3.85,4.88,8,9.65,11.63,14.45s7.23,9.66,11,14.41c-.21-1.54-.32-2.83-.4-4.43-.4-7.53-.27-14.85-.36-22.37-.13-6.91,0-13.62-.59-20.49-.39-4.73-1-9.22-1.3-13.82.14-.36,1.28,2,2.84,1.45,1.38-.58,2.34-1.44,3-1.71s1.63-.7,2.27-.23c.84.24,1.55,1.56,2.09,1.78a3.36,3.36,0,0,0,1.11-.18,8.19,8.19,0,0,0,2.43-1.93l.58-.39C59.75,41.94,60.33,42.28,61.21,41.91Z" style="fill:#fff"/><path d="M433,101.91a1.23,1.23,0,0,1,.37-.21c-.12-.26-.2-.49-.25-.62a14,14,0,0,1,.9-2.55,12.81,12.81,0,0,0,.6-3l0-.5c-1.05-.34-2.12-.56-3-.87l-.43-2.09,0,0-.4-.84L430.42,90c-1.54-6.56-3.22-13.39-5-20.09-1.91-7.79-4-19.28-6.58-27.09L416.46,44c-1,1-1.71,2.52-3.2,2.61l-2.41-1a4.24,4.24,0,0,0-2.32.74c-.14,0-.57.66-1.25,1a16.06,16.06,0,0,0-2.43-.48,2.45,2.45,0,0,0-1.08.1,11.78,11.78,0,0,0-.32,1.48c-1.41,5.64-3.16,14.29-5.09,19.52-2.22,5.75-4.43,11.37-6.78,17.13-2.94,7.08-6,14-9.09,21.39l-1,2.41c-3.36,7.61-.22,1.5-3,9.54.95,0,1.33.58,2.28.61l.68-.11a8.1,8.1,0,0,1,3-.71,3.07,3.07,0,0,1,1.08.3c.39.42.48,1.91,1.14,2.48.38.69,1.46.72,2.14.75s1.91-.35,3.39-.3,1.67,2.76,1.95,2.5c1.63-4.28,3-8.58,4.62-13,.53-1.41.78-2.14.89-2.47s.47-1,1.07-2.36c.45-1,.89-2.06,1.33-3.14l.62,0c3.14-.19,6.36-.46,9.08,1,1.63.22,3.07.51,4.65.78,1.59,7.11,3.85,17.11,4.93,21.69.83,4,2.2,7.39,3.16,11.22,1.15-1.86-.64-5.31-1.2-8.72.66.43,1.48.19,2.38,1.71s.81,4.22,1.71,5.75c.26.41.39.55.52.56.41,0,.32-1.35.75-2,.72-1.46,2.06-1.15,3-1.25,2.59-.6,5.68.18,7.9-1.51ZM408.86,91l-2.38-.18c.91-2.55,1.82-5,2.74-7.32.59-1.48,1.91-6.1,2.37-7.58.93,3.83,1.59,10,2.29,15.5C412.32,91.3,410.84,91.19,408.86,91Z" style="fill:#fff"/><path d="M124.69,109.57l0,.54a9,9,0,0,1-.38,3.38c-.48,1.5-1,2.6-1.32,4.1a10,10,0,0,0-.43,2.44l.17.66c.45.52.89.77.91,1.17,0,.14-.13.28-.54.43-.13.14-.27.15-.55.16-1,0-1.86-.58-2.84-.53-1,.45-1.2,1.13-1.87,1.7,2.13.57,5.09.7,5,1.91-2.27-.43-4.37-.33-6.78-.88-11.17-1.34-19.35-2.15-21.45-2.05l-1.27.06L92,123l-1.11.33c-1.51.48-2.59,1.33-3,1.36a5.78,5.78,0,0,1-1.38.47,7.87,7.87,0,0,1-.86-.23l-2.48-1.76c-1.26.06-2,1.17-3.11,2.16a4.41,4.41,0,0,1-.83.31l-1.12-.08a1.17,1.17,0,0,0-.7.17c-.4-4.82-.8-9.65-1.06-14.47l-.22-27.57c0-5.91.41-3,.09-8.74l-.39-7.38c-.2-3.63-.51-6.84-.85-10.46a5,5,0,0,1,2.5-.65l1.26.07c1.27.07,2.27.29,3.39.24l.56,0,1.54.06a1.73,1.73,0,0,0,1.36-.87c.52-.7.45-2,.87-2.06.14,0,.44.25.61.78a9.13,9.13,0,0,1,.6,3.46l8-.38a106.2,106.2,0,0,1,13.63.27c3.25.38,6.21.64,9.47,1.16l0,.67a12.72,12.72,0,0,1-.24,3.24c-.34,1.49-.42,2.71-.77,3.94a15.73,15.73,0,0,0-.16,2.29,2.41,2.41,0,0,0,.2,1.07c.16.4.73.63.76,1,0,.13-.13.27-.4.42s-.41.16-.84.18l-4,0s-.9,2.43-1.27,3.12c1.63.32,3.76-.06,4.1.76l-5.51,0c-3.38.21-10.53-.37-15.76-.1-1.21-.07-2.42-.15-4.76-.1l-.08,8.08,3-.22,12-1.15a44.89,44.89,0,0,1,5.33-1c-.27,0-.38.43-.35,1.1a35.56,35.56,0,0,0,1,4.65,7.36,7.36,0,0,1,.23,1.74l0,.67c-.08.95-.61,1.24-.55,2.45a9.68,9.68,0,0,0,1.11,3.3l.27,2.68-14.41,2c-2.12.51-5.93,1-5.93,1V102l.09,4.3c3.23-.16,13.23.43,22.25,1.21C117.74,108.29,121.14,108.8,124.69,109.57ZM110.54,81.35h0Z" style="fill:#fff"/><path d="M185.26,60.21c.4,0,1.09,3.18,1,7.35-.39,12.26-1.71,39.08-2.06,57.92-1.21.06-.62-1.72-1.69-1.67a3.87,3.87,0,0,0-1.33.33c-3.18,1.08-2.89,1.48-4.77,1.56a2.88,2.88,0,0,1-1.21-.08c-1-.49-1.28-1.55-2.24-1.91l-.53,0c-1.48.07-2.36,1.45-3.53,2.18l-3.07.41c-.93-2.65-6.46-11.94-8.21-15L149.9,97.87c-.06,1.61.22,10.74.29,12.35.22,13.71.23,19.9.31,21.64-.93,0-1-1.7-1.95-1.66-2,.09-3.15,1.62-3.55,1.78a5.58,5.58,0,0,1-1.6.2c-.4,0-.81,0-1-.09-1-.49-1.42-1.68-2.36-1.77l-.54-.11c-1.21,0-2.23,1.18-3.4,2.17a1,1,0,0,1-.66.17l-1.48-.07c-.41,0-.26.28-.8.3l-2-72.79a7.57,7.57,0,0,1,2.26-.51c2.28-.1,4.47.74,6.48.65l1.75,0a2.18,2.18,0,0,0,1.71-.88c.9-.71,1-2.06,1.38-2.08.13,0,.28.25.58.91L146,64.7c.48,1.72,1.29,1.82,2.25,2.32,0-3.9-1.43-7.74.35-10,.2,4.43,1.2,8.55,1.42,13.38l0,1.07c.56.52,1.21.08,2.17.44A18.46,18.46,0,0,1,150,64.11l4.47,9.75c2.52,5.13,4.84,11.75,7.77,17,1.74,3,4.81,8.39,6.59,12.07-.25-11.42.41-8.63.37-27.31-.16-6.32.1-12.52-.19-19,.92-.44,1.17-.72,1.84-.75a10.39,10.39,0,0,1,1.76.19l.41.11a19.38,19.38,0,0,0,5.4.56,2.23,2.23,0,0,0,1.84-.89c.62-1,.7-2.18,1.1-2.2.14,0,.42.25.58.78a9.48,9.48,0,0,1,.36,2.14v3.09a6.37,6.37,0,0,0,.21,1.74c.49,1.72,1.56,1.81,2.14,2.72C184.79,61.58,185,60.23,185.26,60.21Z" style="fill:#fff"/><path d="M229.11,78.66l-.24,10.47a6.91,6.91,0,0,1-.33,2.82l-.29,13.16c-.07,3.09.08,11.63.41,14.73v.67c.32,3.77.37,7.39.41,11.56-1.33-.3-1.57-1.65-2.64-1.67-1.48,0-2.59,1.42-3,1.54a5.69,5.69,0,0,1-1.62.24c-.4,0-.8,0-.93-.16-.53-.41-1.18-1.5-2.25-1.66s-2.31,1-3.39,1.67a2.53,2.53,0,0,1-1.08.25l-.81,0c-.4,0-.8,0-.94.11-.23-7.93-.09-35.41.29-58.78l-5-.11c1.88,0-4-.79-13.14-1.66l-1.2-.16-.25-1.08a10.2,10.2,0,0,1,.31-1.61l.14-.67,0-.53a21.86,21.86,0,0,0,1-4c.16-.94.31-1.47.32-1.88a2.69,2.69,0,0,0-.38-1.35c-.53-.41-1.32-.7-1.32-1.1,0-.13.28-.4.69-.52s.67-.12,1.07-.11l1.21.16a3.29,3.29,0,0,0,1.34.16,2.54,2.54,0,0,0,1.07-.11c1.22-.37,1.37-1.18,2.06-1.83-2.68-.47-4.42-.64-6.55-1.22l-.4-.15c1.22-.51,2.41.19,3.62.22l12.09.29c5.24.12,10.2.23,15.7.21,5.52-.41,18.72.26,22.88.21-.42.94-1.49.51-1.51,1.45a2.64,2.64,0,0,0,.25,1.21c.36,1.49,1,3,1,3.12a3.37,3.37,0,0,1,.11,1.34c0,.54,0,.94-.16,1.07-.15.67-1.37,1.18-1.39,1.85v.68c0,1.07.89,2,1.41,3.25.13.14.12.41.11.81l0,.94c0,.4-2.09.52-18.49,1.77C229.17,75.7,229.14,77.18,229.11,78.66Z" style="fill:#fff"/><path d="M307,56.38l-.21,14c-.08,4.7-.28,13.86-.35,18.56l-.4,16.92-.18,2.82a23.33,23.33,0,0,1-.31,2.95c0,.14-.14.14-.15.67l0,1.88c-.44,2-.86,3.62-1.43,5.63a21.67,21.67,0,0,1-1.26,3.07c-.68,1.06-1.23,2-1.92,2.92a17,17,0,0,1-2.73,2.65,12.54,12.54,0,0,1-3,2.1,16,16,0,0,1-3.11,1.43c-1.21.25-2.29.5-3.23.62a22,22,0,0,1-5.92.58H282l-.67-.14L280,133a22,22,0,0,1-2.95-.59,22.29,22.29,0,0,1-6.14-1.84,21.29,21.29,0,0,1-8.08-7.38,21.23,21.23,0,0,1-2.21-4.33,16.52,16.52,0,0,1-1.55-3.92l-.26-.54-.38-1.62a7.29,7.29,0,0,1-.64-2.29c-.38-1.62-1.27-4.59-1.24-6.47l.12-8.19c0-2.55.38-11.18.68-13.72.45-3.09,1-10.2,1.55-13.41s.77-6.17.94-9l.28-.4a2.64,2.64,0,0,1,1.89-.78,5.64,5.64,0,0,1,2,.57c1.46.56,2.39,1.52,3.86,1.67.41,0,.93.42,1.47.43s1.21-.12,1.64-1.59a18.48,18.48,0,0,0,1-3.61c.14-.4.28-.53.41-.53l.24,1.75a7.7,7.7,0,0,1,.11,2c0,1.62-.32,3.49-.49,5.24-.17,2.55-.61,5.09-.64,6.84v.8c-.05,3.09.62,3.37,1.13,4.86,2.5-13.93,1.8-20.66,3.15-21.31a46.43,46.43,0,0,1-.38,7.51L274.67,70c-.47,4.7-1.08,13.45-1.82,18.14-.16,1.61-.18,3.22-.2,4.56l0,2.69c0,1.88.43,7.4.54,8.88l.21,3.76.65,1.35a11.12,11.12,0,0,1,.9,2.43c.66.69.79,1.23,1.45,1.78.26.54.66.68,1.06,1.09.67.28,1.2.42,2,.83a11.71,11.71,0,0,0,2.27.44l1.87.84a7.14,7.14,0,0,0,2.16-.51l1.48-.65a3.6,3.6,0,0,0,1.1-1.33,11.3,11.3,0,0,0,.83-1.73,13.46,13.46,0,0,0,.31-2.55c.16-1.87.18-3.49.22-5.77l.17-11.42.34-4.16c.1-6.58.31-24.74.28-31.59v-.94c1.32,1.5.61,3.91,1.55,3.92,1.48,0,3.67-3,4.34-3a3.55,3.55,0,0,1,1.35-.52,1,1,0,0,1,.8.55c.93.68,1,3.37,2,3.79.13.14.26.14.53.14,1.21,0,2.19-2.38,3.28-3.84a1,1,0,0,1,.95-.53c.4,0,.54.15.94.15A1.11,1.11,0,0,0,307,56.38Z" style="fill:#fff"/><path d="M367.82,121.89l4,6.55a1,1,0,0,0-.92-.56c-1.48,0-3.68,1.92-4.37,2.57a4.06,4.06,0,0,1-2,1c-.53,0-1.2-.3-1.6-.31l-.4.12c-1.49.36-1.92,1.29-2.88,2.21-1,.65-1.63.63-2.32,1.15-2.43-4.37-4.61-8.45-7-13.22-2-4.22-3.68-7.89-5.32-12.1a49.26,49.26,0,0,1-2.25-6.24c-2.69.2-9.47.15-9.47.15l-.32,12a32.14,32.14,0,0,1,.37,6.2c-.78-.43-.49-1.5-1.42-1.52a9.12,9.12,0,0,0-4,1.24,8.35,8.35,0,0,1-1.47.23,3.73,3.73,0,0,1-.92-.29c-.52-.42-1.29-1.52-1.81-1.66l-.66-.16c-1.06,0-1.88,1-2.83,1.68l-.93.24L318,121c-.27,0-.4,0-.4.12l1.61-62.31a5.2,5.2,0,0,1,2-.35c2,0,3.83.77,5.55.82h0s1.34.39,1.1.26V58.5c.27-.4,0-.81-.65-1.23-.93-.56-2.67-.74-2.66-1.14,0-.14.41-.26,1.22-.37,1-.38,2.83-.2,4.44-.16a4.32,4.32,0,0,0,2.28-.08h.94c1.07.32,2.68.36,2.69-.31s-9.52-.52-10-2.14a71,71,0,0,1,8.06-.06c14.08.37,22.79,1.4,31.82,10.1,4.2,3.87,6,8.22,7.8,15C372.92,86,366.64,95,360.66,97.78a19.46,19.46,0,0,1-2.44,1c.38,1,.62,1.89,1,2.71,1.39,3.39,2.37,6.91,3.89,10.58A81.76,81.76,0,0,0,367.82,121.89Zm-32.7-33.55c2.82.07,5.65-.39,8.34-.45,14.64-.16,16.33-13.55,10.91-16.79-5.84-2.83-3.82-2.78-14.8-3.88a42.14,42.14,0,0,0-5.63-.54l.2,2.55-.76,19.06Z" style="fill:#fff"/></g><g id="headname"><path d="M128.3,31.39l7.53-3.89a4.72,4.72,0,0,0,2,3.1,8.22,8.22,0,0,0,7.88.26,2.74,2.74,0,0,0,1.37-2.43c0-1.63-1.62-3-4.88-4.1-1-.34-1.82-.63-2.41-.86q-6-2.23-8.25-4.51a7.64,7.64,0,0,1-2.29-5.62,9.75,9.75,0,0,1,3.89-8q3.9-3.06,10.26-3.06a16.2,16.2,0,0,1,7.87,1.82,11,11,0,0,1,4.83,5.17L149,12.82a5.19,5.19,0,0,0-2-2.87,7.2,7.2,0,0,0-7.13-.09,2.72,2.72,0,0,0-1.34,2.34q0,2.52,6.68,4.69c.53.16.93.28,1.2.38q5.55,1.82,7.89,4.25a8.55,8.55,0,0,1,2.34,6.19,9.53,9.53,0,0,1-3.89,8q-3.9,3-10.5,3a19,19,0,0,1-8.94-1.95A9.78,9.78,0,0,1,128.3,31.39Z" style="fill:#fff"/><path d="M172.06,38.66V0h9.77V38.66Z" style="fill:#fff"/><path d="M257.13,38.66V18.91h-4.71V11.23h4.71V0h9.81V11.23h4.72v7.68h-4.72V38.66Z" style="fill:#fff"/><path d="M286.11,31.39l7.53-3.89a4.72,4.72,0,0,0,2,3.1,8.22,8.22,0,0,0,7.88.26,2.75,2.75,0,0,0,1.38-2.43q0-2.45-4.89-4.1c-1-.34-1.82-.63-2.41-.86q-6-2.23-8.25-4.51a7.64,7.64,0,0,1-2.29-5.62,9.75,9.75,0,0,1,3.89-8q3.9-3.06,10.26-3.06a16.2,16.2,0,0,1,7.87,1.82A10.9,10.9,0,0,1,314,9.24l-7.19,3.58a5.19,5.19,0,0,0-2-2.87,7.2,7.2,0,0,0-7.13-.09,2.72,2.72,0,0,0-1.34,2.34q0,2.52,6.68,4.69c.53.16.93.28,1.2.38q5.55,1.82,7.89,4.25a8.55,8.55,0,0,1,2.34,6.19,9.53,9.53,0,0,1-3.89,8c-2.59,2-6.1,3-10.5,3A19,19,0,0,1,291,36.71,9.78,9.78,0,0,1,286.11,31.39Z" style="fill:#fff"/></g><g id="coins"><path d="M200.6,39.08c0,1.48,7.82,2.68,17.46,2.68s17.47-1.2,17.47-2.68-7.82-2.68-17.47-2.68S200.6,37.6,200.6,39.08Z" style="fill:#292525"/><ellipse cx="217.41" cy="20.19" rx="18.9" ry="18.92" style="fill:#ffc812"/><path d="M231.74,19.9A13.9,13.9,0,1,1,217.84,6,13.91,13.91,0,0,1,231.74,19.9Z" style="fill:#fde800"/><path d="M218.63,32.91A13.91,13.91,0,0,1,208.3,9.69,13.9,13.9,0,1,0,227.74,29.5,13.84,13.84,0,0,1,218.63,32.91Z" style="fill:#eb8802"/><rect x="217.13" y="2.41" width="0.55" height="2.67" style="fill:#eb8802"/><rect x="217.13" y="35.08" width="0.55" height="2.67" style="fill:#eea320"/><rect x="232.39" y="19.8" width="2.67" height="0.55" style="fill:#eb8802"/><rect x="199.76" y="19.8" width="2.67" height="0.55" style="fill:#eb8802"/><rect x="227.61" y="8.25" width="2.67" height="0.55" transform="translate(61 164.35) rotate(-44.99)" style="fill:#eb8802"/><rect x="204.53" y="31.35" width="2.67" height="0.55" transform="translate(37.92 154.82) rotate(-44.99)" style="fill:#eb8802"/><rect x="228.67" y="30.29" width="0.55" height="2.67" transform="translate(44.66 171.11) rotate(-44.99)" style="fill:#eb8802"/><rect x="205.59" y="7.19" width="0.55" height="2.67" transform="translate(54.27 148.07) rotate(-45)" style="fill:#eb8802"/><rect x="222.27" y="4.69" width="2.67" height="0.55" transform="translate(134.05 209.91) rotate(-67.67)" style="fill:#eb8802"/><rect x="209.88" y="34.91" width="2.67" height="0.55" transform="translate(98.38 217.17) rotate(-67.66)" style="fill:#eb8802"/><rect x="232.23" y="24.94" width="0.55" height="2.67" transform="translate(119.95 231.41) rotate(-67.69)" style="fill:#eb8802"/><rect x="202.04" y="12.54" width="0.55" height="2.67" transform="translate(112.72 195.8) rotate(-67.7)" style="fill:#eb8802"/><rect x="231.13" y="13.5" width="2.67" height="0.55" transform="translate(12.68 90.74) rotate(-22.69)" style="fill:#eb8802"/><rect x="201.02" y="26.1" width="2.67" height="0.55" transform="translate(5.46 80) rotate(-22.66)" style="fill:#eb8802"/><rect x="223.43" y="33.81" width="0.55" height="2.67" transform="matrix(0.92, -0.39, 0.39, 0.92, 3.76, 89.05)" style="fill:#eb8802"/><rect x="210.84" y="3.67" width="0.55" height="2.67" transform="translate(14.4 81.79) rotate(-22.68)" style="fill:#eb8802"/><path d="M226.44,10.84c3,3.06,4.14,7.53,3.13,8.52s-4.26-.69-7.26-3.75-4.63-6.35-3.62-7.33S223.43,7.78,226.44,10.84Z" style="fill:#fff;opacity:0.62"/></g></g></svg>