<?xml version="1.0" encoding="UTF-8" standalone="no"?>
<!DOCTYPE svg PUBLIC "-//W3C//DTD SVG 1.1//EN" "http://www.w3.org/Graphics/SVG/1.1/DTD/svg11.dtd">
<svg version="1.1" xmlns="http://www.w3.org/2000/svg" xmlns:xlink="http://www.w3.org/1999/xlink" preserveAspectRatio="xMidYMid meet" viewBox="0 0 640 168" width="640" height="168"><defs><path d="M42.3 7.11L0 130.98L24.91 130.98L36.86 94.82L71.19 94.82L83.48 130.98L108.86 130.98L66.5 7.11L42.3 7.11ZM65.2 74.28L42.94 74.28C48.49 57.92 51.58 48.83 52.19 47.01C52.85 45.14 53.43 43.26 53.96 41.38C54.54 43.26 55.12 45.14 55.84 47.13C57.08 50.75 60.21 59.8 65.2 74.28Z" id="e4ArtA7zC"></path><path d="M139.32 64.17C139.32 59.98 142.83 57.34 148.46 57.34C153.59 57.39 158.6 58.88 162.93 61.63C163.25 61.84 164.87 62.86 167.79 64.69L174.23 44.91C172.5 43.78 171.55 43.16 171.35 43.03C165.72 39.28 157.3 37.14 148.83 37.14C129.73 37.14 115.84 49.27 115.84 66.04C115.71 81.42 129.31 89.69 140.76 93.76C152.21 97.84 153.02 100.95 153.02 104.59C153.02 111.43 145.87 112.44 141.64 112.44C135.39 112.17 129.29 110.4 123.87 107.26C123.55 107.07 121.92 106.1 118.99 104.37L112.61 124.56C114.47 125.69 115.5 126.32 115.71 126.44C123.51 130.76 132.3 132.97 141.21 132.86C162.31 132.86 176.42 120.96 176.42 103.3C176.42 85.64 162.48 78.11 152.02 74.17C140.59 69.57 139.32 67.51 139.32 64.17Z" id="c4DqbRgFpa"></path><path d="M191.12 23.74L191.12 38.1L178.3 38.1L178.3 58.74L191.12 58.74C191.12 83.44 191.12 97.16 191.12 99.9C191.12 111.37 193.41 119.55 198.1 124.96C203.21 130.27 210.35 133.15 217.71 132.86C222.76 132.9 227.78 132.12 232.58 130.55C232.79 130.48 233.87 130.1 235.81 129.42L234.6 108.63C231.32 109.63 229.49 110.19 229.12 110.3C226.71 110.95 224.22 111.23 221.73 111.13C218.84 111.13 214.97 111.13 214.97 99.43C214.97 96.73 214.97 83.19 214.97 58.82L236.48 58.82L236.48 38.17L214.92 38.17L214.92 16.5L191.12 23.74Z" id="f169QhTa60"></path><path d="M296.54 38.02C293.85 37.71 292.35 37.53 292.05 37.5C290.59 37.27 289.11 37.15 287.62 37.14C279.99 37.15 272.67 40.2 267.3 45.62C267.28 45.17 267.2 42.91 267.05 38.85L243.99 38.85C244.17 41.74 244.27 43.35 244.29 43.67C244.78 50.75 245.02 58.87 245.02 69.31C245.02 73.42 245.02 93.98 245.02 130.98L269.91 130.98C269.91 101.7 269.91 85.44 269.91 82.18C269.9 80.09 270.04 78.01 270.32 75.93C272.2 66.4 278.33 60.45 286.59 60.45C288.03 60.39 289.47 60.46 290.89 60.68C291.27 60.76 293.14 61.15 296.52 61.86L296.54 38.02Z" id="f3FOFP5UC"></path><path d="M292.79 85.62C292.79 113.42 311.35 132.86 337.96 132.86C360.48 132.86 384.75 117.66 384.75 84.21C384.75 56.53 366.13 37.14 339.41 37.14C311.95 37.14 292.79 57.05 292.79 85.62ZM338.73 112.48C326.53 112.48 317.77 100.95 317.77 85.09C317.77 74.85 322.27 57.52 339.11 57.52C355.49 57.52 359.83 75.32 359.83 84.74C359.83 100.82 350.93 112.48 338.73 112.48Z" id="ghUiaf0Fs"></path><path d="M427.49 5.23C417.57 5.18 407.67 5.95 397.89 7.54C397.64 7.59 396.39 7.8 394.13 8.18L394.13 130.98L418.25 130.98C418.25 103.6 418.25 88.38 418.25 85.34C420.75 85.56 423.28 85.62 425.76 85.62C442.05 85.62 455.79 80.61 464.57 71.52C471.39 64.56 474.82 55.2 474.82 43.63C475.12 33.18 470.87 23.11 463.16 16.03C455.17 8.99 443.2 5.23 427.49 5.23ZM426.08 64.5C423.44 64.54 420.81 64.4 418.2 64.09C418.2 60.35 418.2 30.39 418.2 26.65C421.38 26.3 424.58 26.14 427.79 26.18C438.28 26.18 450.72 29.35 450.72 44.46C450.72 61.91 435.31 64.5 426.08 64.5Z" id="a19DnZ5rEv"></path><path d="M547.83 75.5C547.83 50.75 534.9 37.14 511.19 37.14C500.57 37.05 490.12 39.78 480.9 45.04C480.7 45.17 479.68 45.79 477.86 46.92L484.43 66.08C487.45 64.07 489.12 62.95 489.46 62.72C495.35 59.11 502.14 57.23 509.05 57.3C513.95 57.3 517.59 58.37 519.92 60.66C522.06 62.94 523.31 65.92 523.45 69.05C504.32 69.57 490.34 74.11 481.86 82.43C475.95 88.2 472.72 96.19 472.96 104.44C472.96 118.54 483.36 132.86 503.31 132.86C511.52 132.93 519.52 130.29 526.08 125.35C526.12 125.72 526.34 127.54 526.73 130.83L549.91 130.83C549.45 127.72 549.19 126 549.14 125.65C548.13 119.35 547.69 112.97 547.83 106.58C547.83 100.37 547.83 78.61 547.83 75.5ZM497.34 102.81C497.21 99.83 498.36 96.94 500.5 94.85C503.37 92.09 509.71 88.9 523.86 88.62C523.86 89.61 523.86 97.52 523.86 98.51C523.87 99.65 523.71 100.78 523.39 101.87C520.85 108.65 514.24 113.02 507.01 112.7C503.37 112.72 497.34 111.43 497.34 102.81Z" id="a2Ypfiz2D"></path><path d="M596.48 90.39C596.01 91.66 595.59 93.01 595.18 94.31C594.69 93.01 594.28 91.79 593.81 90.56C592.53 87.12 586.12 69.94 574.57 39.02L548.04 39.02L581.27 121.07C581.35 121.21 581.4 121.28 581.41 121.3C581.73 121.89 581.99 122.52 582.17 123.17C581.99 123.64 581.63 124.45 581.41 125.05C578.72 130.83 574.81 135.96 569.94 140.07C569.93 140.08 569.84 140.17 569.83 140.18C566.35 143.05 562.36 145.26 558.08 146.67C557.79 146.76 556.36 147.21 553.8 148.01L560.03 168.52C562.42 168.1 563.74 167.87 564.01 167.82C566.45 167.41 575.04 165.37 584.9 157.24C596.72 146.95 604.55 130.53 614.83 103.88C616.51 99.56 624.9 77.94 640 39.02L614.12 39.02C603.53 69.84 597.65 86.96 596.48 90.39Z" id="j4Z3KBj5bm"></path><path d="M90.09 39.37C105.59 23.85 131.92 14.62 160.56 14.62C171.47 14.58 182.33 15.98 192.86 18.79C192.92 18.8 193.19 18.88 193.69 19.01L212.08 13.53C207.13 11.69 204.37 10.67 203.82 10.47C187.07 4.4 169.37 1.36 151.55 1.48C124.68 1.48 99.57 7.82 80.84 19.37C80.7 19.45 80.03 19.87 78.83 20.62L86.54 42.77C88.43 40.96 89.62 39.83 90.09 39.37Z" id="a3ZsgLfqvO"></path></defs><g><g><g><use xlink:href="#e4ArtA7zC" opacity="1" fill="#ffffff" fill-opacity="1"></use><g><use xlink:href="#e4ArtA7zC" opacity="1" fill-opacity="0" stroke="#000000" stroke-width="1" stroke-opacity="0"></use></g></g><g><use xlink:href="#c4DqbRgFpa" opacity="1" fill="#ffffff" fill-opacity="1"></use><g><use xlink:href="#c4DqbRgFpa" opacity="1" fill-opacity="0" stroke="#000000" stroke-width="1" stroke-opacity="0"></use></g></g><g><use xlink:href="#f169QhTa60" opacity="1" fill="#ffffff" fill-opacity="1"></use><g><use xlink:href="#f169QhTa60" opacity="1" fill-opacity="0" stroke="#000000" stroke-width="1" stroke-opacity="0"></use></g></g><g><use xlink:href="#f3FOFP5UC" opacity="1" fill="#ffffff" fill-opacity="1"></use><g><use xlink:href="#f3FOFP5UC" opacity="1" fill-opacity="0" stroke="#000000" stroke-width="1" stroke-opacity="0"></use></g></g><g><use xlink:href="#ghUiaf0Fs" opacity="1" fill="#ffffff" fill-opacity="1"></use><g><use xlink:href="#ghUiaf0Fs" opacity="1" fill-opacity="0" stroke="#000000" stroke-width="1" stroke-opacity="0"></use></g></g><g><use xlink:href="#a19DnZ5rEv" opacity="1" fill="#ffffff" fill-opacity="1"></use><g><use xlink:href="#a19DnZ5rEv" opacity="1" fill-opacity="0" stroke="#000000" stroke-width="1" stroke-opacity="0"></use></g></g><g><use xlink:href="#a2Ypfiz2D" opacity="1" fill="#ffffff" fill-opacity="1"></use><g><use xlink:href="#a2Ypfiz2D" opacity="1" fill-opacity="0" stroke="#000000" stroke-width="1" stroke-opacity="0"></use></g></g><g><use xlink:href="#j4Z3KBj5bm" opacity="1" fill="#ffffff" fill-opacity="1"></use><g><use xlink:href="#j4Z3KBj5bm" opacity="1" fill-opacity="0" stroke="#000000" stroke-width="1" stroke-opacity="0"></use></g></g><g><use xlink:href="#a3ZsgLfqvO" opacity="1" fill="#ff0000" fill-opacity="1"></use><g><use xlink:href="#a3ZsgLfqvO" opacity="1" fill-opacity="0" stroke="#000000" stroke-width="1" stroke-opacity="0"></use></g></g></g></g></svg>