<svg id="a517bc62-3198-4232-add3-f446db8c61f6" data-name="logo" xmlns="http://www.w3.org/2000/svg" viewBox="0 0 113 49"><title>giropay</title><path d="M104.52,0H8.36A8.32,8.32,0,0,0,0,8.37v32A8.51,8.51,0,0,0,8.36,49h96.16A8.61,8.61,0,0,0,113,40.4v-32A8.42,8.42,0,0,0,104.52,0Z" style="fill:#273678"/><path d="M58.61,3.55H8.36A4.82,4.82,0,0,0,3.53,8.37v32a4.83,4.83,0,0,0,4.83,4.83H58.61Z" style="fill:#fff"/><path d="M73.61,24c0,1.95-1,3.28-2.56,3.28a2.85,2.85,0,0,1-2.58-3.11c0-1.83,1-3.19,2.58-3.19s2.56,1.41,2.56,3M64.26,35.16h4.21V28.54h0a4.24,4.24,0,0,0,3.87,2c3.63,0,5.58-3,5.58-6.61,0-2.94-1.86-6.16-5.23-6.16a4.79,4.79,0,0,0-4.54,2.48h0V18.05H64.26V35.16Zm19.47-8.77c0-1.18,1.12-1.63,2.55-1.63.64,0,1.25,0,1.78.08a2.75,2.75,0,0,1-2.6,2.88c-1,0-1.73-.5-1.73-1.33m8.51,3.85A14.67,14.67,0,0,1,92,27.36V22.82c0-3.72-2.7-5.06-5.81-5.06a12.6,12.6,0,0,0-4.87.87l.07,2.85a8,8,0,0,1,3.88-.91c1.54,0,2.78.45,2.79,2.11a12.74,12.74,0,0,0-2-.16c-2.25,0-6.3.44-6.3,4.17,0,2.64,2.14,3.83,4.56,3.83a4.18,4.18,0,0,0,3.87-2.19h0c0,.63.07,1.26.09,1.91Zm1.89,4.92a12.25,12.25,0,0,0,2.63.29c3.87,0,4.78-3,6-6.05l4.48-11.35H103l-2.52,8h0l-2.63-7.95H93.27l4.94,12.47a2.16,2.16,0,0,1-2.13,1.7A4.94,4.94,0,0,1,94.42,32Z" style="fill:#fff"/><path d="M13.87,24c0-1.66.82-3.05,2.39-3.05A2.68,2.68,0,0,1,19,23.88,2.85,2.85,0,0,1,16.26,27c-1.27,0-2.39-1.07-2.39-3m9.17-6H19.21v2.19h0A4.79,4.79,0,0,0,15,17.76c-3.79,0-5.5,2.72-5.5,6.35S11.6,30.24,15,30.24a4.75,4.75,0,0,0,4.1-2.08h.05v.66c0,2.4-1.32,3.53-3.76,3.53a8.32,8.32,0,0,1-4.12-1L11,34.68a14.25,14.25,0,0,0,4.66.77c4.93,0,7.37-1.62,7.37-6.63V18.05ZM30.16,13H26v3.09h4.21ZM26,30.24h4.21V18.05H26Zm16-12.34a8.89,8.89,0,0,0-1.43-.14,3.78,3.78,0,0,0-3.61,2.53h0V18.05H33V30.24h4.23V25.1c0-2.39,1.09-3.82,3.07-3.82a4.86,4.86,0,0,1,1.42.14Zm7.26,9.68c-1.94,0-2.73-1.62-2.73-3.42s.79-3.45,2.73-3.45,2.75,1.62,2.75,3.45-.8,3.42-2.75,3.42m0,3c4,0,7.11-2.35,7.11-6.37s-3.07-6.4-7.11-6.4-7.09,2.34-7.09,6.4,3.07,6.37,7.09,6.37" style="fill:#e11616"/></svg>