<?xml version="1.0" encoding="UTF-8" standalone="no"?>
<!DOCTYPE svg PUBLIC "-//W3C//DTD SVG 1.1//EN" "http://www.w3.org/Graphics/SVG/1.1/DTD/svg11.dtd">
<svg version="1.1" xmlns="http://www.w3.org/2000/svg" xmlns:xlink="http://www.w3.org/1999/xlink" preserveAspectRatio="xMidYMid meet" viewBox="0 0 640 195" width="640" height="195"><defs><path d="M34.4 48.14C34.4 48.18 34.41 48.33 34.44 48.6L34.4 48.6L34.4 61.77C21.5 61.77 14.34 61.77 12.91 61.77C5.75 61.77 -1.28 65.21 0.21 73.33C1.81 80.33 14.56 136.32 16.16 143.32C17.58 149.25 21.99 153.35 29.18 153.35C39.96 153.35 126.2 153.35 136.98 153.35C144.16 153.35 148.58 149.25 149.98 143.32C151.58 136.32 164.33 80.33 165.93 73.33C167.45 65.24 160.42 61.82 153.23 61.82C151.79 61.82 144.62 61.82 131.71 61.82C131.71 54.92 131.71 51.08 131.71 50.31C131.74 49.58 131.75 48.86 131.75 48.13C131.71 21.8 109.93 0.44 83.06 0.44C56.18 0.44 34.4 21.8 34.4 48.14ZM114.39 46.76C114.39 46.78 114.39 46.92 114.39 47.16L114.39 61.77L51.73 61.77L51.73 47.17L51.73 47.17C51.73 46.92 51.73 46.79 51.73 46.76C51.73 29.81 65.75 16.07 83.06 16.07C100.32 16.07 114.39 29.81 114.39 46.76ZM100.94 81.28C102.82 81.28 104.03 81.49 104.03 83.07C104.03 83.89 104.03 90.42 104.03 91.23C104.03 92.16 104.03 92.95 102.11 92.95C101.14 92.95 93.34 92.95 92.36 92.95C91.29 92.95 90.81 93.15 90.81 94.23C90.81 97.54 90.81 124.04 90.81 127.35C90.81 129.06 89.82 129.53 87.4 129.53C86.43 129.53 78.68 129.53 77.71 129.53C75.02 129.53 74.28 129.26 74.28 127.35C74.28 124.04 74.28 97.54 74.28 94.23C74.28 93.18 73.81 92.95 72.74 92.95C71.83 92.95 64.59 92.95 63.68 92.95C61.81 92.95 61.81 92.16 61.81 91.23C61.81 90.41 61.81 83.88 61.81 83.07C61.81 81.48 63.02 81.28 64.9 81.28C64.9 81.28 97.34 81.28 100.94 81.28ZM31.1 175.91C31.1 186.34 39.74 194.81 50.38 194.81C61.03 194.81 69.63 186.36 69.63 175.91C69.63 165.47 61.02 157.04 50.38 157.04C39.74 157.04 31.1 165.49 31.1 175.91ZM96.47 175.91C96.47 186.34 105.1 194.81 115.76 194.81C126.41 194.81 135.02 186.36 135.02 175.91C135.02 165.47 126.39 157.04 115.76 157.04C105.11 157.04 96.47 165.49 96.47 175.91Z" id="clgWuHnav"></path><path d="M532 60.45C529.44 60.45 528.16 62.08 528.16 63.94C528.16 72.45 528.16 140.5 528.16 149.01C528.16 152.85 528.68 153.36 533.16 153.36C534.99 153.36 549.69 153.36 551.53 153.36C556.24 153.36 556.11 150.87 556.11 147.61C556.11 139.33 556.11 73.1 556.11 64.83C556.11 62.08 555.73 60.45 550.24 60.45C546.59 60.45 535.65 60.45 532 60.45ZM190.06 61.82C186.48 61.82 184.21 62.21 184.21 65.2C184.21 66.75 184.21 79.16 184.21 80.71C184.21 82.47 184.21 83.97 187.76 83.97C189.49 83.97 203.3 83.97 205.02 83.97C207.06 83.97 207.95 84.33 207.95 86.34C207.95 92.63 207.95 142.97 207.95 149.26C207.95 152.88 209.35 153.37 214.45 153.37C216.29 153.37 231 153.37 232.84 153.37C237.44 153.37 239.34 152.51 239.34 149.26C239.34 142.97 239.34 92.63 239.34 86.33C239.34 84.33 240.23 83.96 242.27 83.96C244.13 83.96 259 83.96 260.86 83.96C264.42 83.96 264.42 82.46 264.42 80.71C264.42 79.16 264.42 66.75 264.42 65.2C264.42 62.2 262.12 61.81 258.55 61.81C244.85 61.82 203.76 61.82 190.06 61.82ZM500.86 69.82C499.39 70.06 487.63 71.97 486.16 72.21C483.1 72.7 479.92 74.33 479.92 77.47C479.92 78.05 479.92 80.97 479.92 86.23C477.09 86.23 475.51 86.23 475.2 86.23C471.62 86.23 470.47 87.59 470.47 91.08C470.47 91.9 470.47 98.4 470.47 99.22C470.47 102.36 471.11 104.33 474.3 104.33C474.72 104.33 478.1 104.33 478.52 104.33C478.52 104.33 478.38 129.47 478.52 136.98C478.52 136.98 483.24 155.11 500.08 155.11C506.71 155.11 513.98 153.62 515.89 152.74C517.17 152.1 515.25 134.84 513.34 135.11C512.7 135.21 512.06 135.25 511.42 135.23C508.61 135.23 506.7 134.22 506.7 131.84C506.7 130.04 506.7 120.99 506.7 104.72C511.37 104.72 513.97 104.72 514.49 104.72C517.93 104.72 517.92 102.98 517.92 99.47C517.92 98.76 517.92 93.05 517.92 92.33C517.92 89.2 517.04 86.22 513.84 86.22C513.31 86.22 510.64 86.22 505.84 86.22C505.84 79.08 505.84 75.11 505.84 74.32C505.84 71.7 505.84 70.06 503.74 69.72C502.78 69.61 501.81 69.64 500.86 69.82ZM406.72 104.7C406.72 119.47 419.59 124.34 427.88 127.83C431.72 129.47 434.78 130.72 434.78 132.46C434.78 135.09 431.58 135.83 425.98 135.83C415.39 135.83 410.64 134.21 407.87 133.59C404.03 132.71 405.18 150.47 406.45 151.09C409.27 152.48 421.5 155.1 434.91 155.1C447.15 155.1 465.01 152.6 465.01 133.08C465.01 118.07 451.11 111.7 442.43 107.82C438.6 106.06 436.17 104.7 436.17 103.58C436.17 101.45 438.09 100.69 442.43 100.69C446.64 100.69 454.43 102.07 456.72 102.19C460.16 102.32 462.72 86.56 460.3 85.69C458.38 84.94 454.43 83.56 441.04 83.56C424.2 83.56 406.72 89.56 406.72 104.7ZM288.32 86.05C272.34 86.05 269.04 92.92 269.04 100.75C269.04 105.43 269.04 142.82 269.04 147.5C269.04 150.74 270.44 153.36 275.3 153.36C277.01 153.36 290.69 153.36 292.41 153.36C297.12 153.36 296.99 149.87 296.99 146.62C296.99 143.63 296.99 119.72 296.99 116.74C296.99 111.62 298.79 108.88 304.28 106.76C307.22 105.63 312.81 105.48 316.25 105.48C318.41 105.48 319.18 104.1 319.18 102.6C319.18 101.15 319.18 89.55 319.18 88.1C319.18 85.98 317.26 85.98 316.25 85.98C316.25 85.97 291.11 86.04 288.32 86.05ZM332.58 86.05C329 86.05 327.6 89.31 327.6 92.81C327.6 96.88 327.6 129.39 327.6 133.45C327.6 149.44 337.28 153.49 346.09 153.49C346.09 153.49 346.09 153.49 346.09 153.49C365.92 153.49 376.94 153.49 379.14 153.49C383.98 153.49 395 150.88 395 133.26C395 129.13 395 96.09 395 91.96C395 88.71 393.59 86.07 388.74 86.07C387.03 86.07 373.34 86.07 371.63 86.07C366.91 86.07 367.04 89.59 367.04 92.84C367.04 95.96 367.04 120.99 367.04 124.12C367.04 126.99 365.77 130.12 361.68 130.12C357.72 130.12 356.71 126.86 356.71 123.86C356.71 120.61 356.71 94.59 356.71 91.34C356.71 88.21 353.63 86.07 350.45 86.07C346.87 86.07 336.15 86.05 332.58 86.05ZM567.33 86.05C563.37 86.05 562.22 87.54 563.38 90.42C565.06 94.51 573.48 114.94 588.64 151.71C582.89 165.07 579.69 172.49 579.05 173.97C577.77 176.84 578.41 178.34 583 178.34C584.44 178.34 595.98 178.34 597.42 178.34C599.98 178.34 602.39 175.73 603.42 173.35C607.01 165.06 635.8 98.71 639.4 90.42C640.68 87.54 640.04 86.05 635.45 86.05C633.88 86.05 621.33 86.05 619.76 86.05C617.21 86.05 614.8 88.56 613.78 91.05C613.08 92.75 609.59 101.26 603.31 116.56C597.79 101.25 594.73 92.74 594.12 91.04C593.23 88.54 590.68 86.05 588.12 86.05C583.96 86.05 571.49 86.05 567.33 86.05Z" id="b1aTkziWt4"></path></defs><g><g><g><use xlink:href="#clgWuHnav" opacity="1" fill="#33cc33" fill-opacity="1"></use><g><use xlink:href="#clgWuHnav" opacity="1" fill-opacity="0" stroke="#000000" stroke-width="1" stroke-opacity="0"></use></g></g><g><use xlink:href="#b1aTkziWt4" opacity="1" fill="#ffffff" fill-opacity="1"></use><g><use xlink:href="#b1aTkziWt4" opacity="1" fill-opacity="0" stroke="#000000" stroke-width="1" stroke-opacity="0"></use></g></g></g></g></svg>