<svg xmlns="http://www.w3.org/2000/svg" viewBox="0 0 90 35"><g id="Logo_-_MGA" data-name="Logo - MGA"><g id="logo"><path d="M5.49,16.77c-1.81-.25-2.7-1.62-3.68-2.88-.53-.68-1.07-1.35-1.58-2-.14-.18-.34-.42-.16-.66s.45-.13.68,0L8,13.59l8.21,2.8a3.2,3.2,0,0,1,.9.46l-9,3.09c-2.32.79-4.64,1.59-7,2.37-.34.11-.8.4-1,.07s.15-.73.37-1c.77-1,1.57-2,2.35-3A4.65,4.65,0,0,1,5.49,16.77ZM17.34,5.84a3.88,3.88,0,0,0-1.75-3.19C14.65,2,13.75,1.26,12.81.59,12.44.33,12-.24,11.57.11s0,.87.17,1.28Q14.37,8.65,17,15.9c.07.19.06.44.33.58C17.35,12.91,17.38,9.38,17.34,5.84Zm-.26,11.68Q14.35,25,11.64,32.45a5,5,0,0,0-.19.63c-.07.4.14.56.5.42a3.18,3.18,0,0,0,.73-.43c1-.72,2-1.47,2.93-2.18a3.91,3.91,0,0,0,1.74-3.27c0-3.51,0-7,0-10.53C17.1,17.15,17.13,17.37,17.08,17.52Z" transform="translate(0 0)" style="fill:#d0010e"/><path d="M28.21,9.59a12,12,0,0,1,4.21-2.06A6.27,6.27,0,0,1,38,8.62c.12.1.23.21.34.32.29.26.43.82.78.81s.65-.41,1-.63a9.33,9.33,0,0,1,6.66-1.69,5.57,5.57,0,0,1,5,5.08,22.45,22.45,0,0,1,.12,2.59c0,3.39,0,6.78,0,10.17,0,.52-.13.68-.66.67-1.51,0-3,0-4.52,0-.55,0-.66-.17-.66-.68,0-3.34,0-6.69,0-10,0-2.48-1.16-3.34-3.59-2.74l-.39.1c-1.73.53-1.85.7-1.85,2.48,0,3.41,0,6.82,0,10.24,0,.48-.11.65-.62.64-1.49,0-3,0-4.45,0-.55,0-.71-.13-.71-.69,0-3.3,0-6.61,0-9.91a5.31,5.31,0,0,0-.23-1.63,1.81,1.81,0,0,0-1.7-1.36,5.85,5.85,0,0,0-3.37.79.91.91,0,0,0-.55.93c0,3.7,0,7.4,0,11.1,0,.61-.15.79-.76.77-1.51-.05-3,0-4.52,0-.4,0-.55-.11-.55-.52q0-8.58,0-17.15c0-.38.14-.51.51-.5,1.31,0,2.61,0,3.92,0a.52.52,0,0,1,.6.47C27.91,8.66,28.07,9.1,28.21,9.59ZM72.29,28.66A5.09,5.09,0,0,1,69.91,33a10.65,10.65,0,0,1-4.75,1.75,16.81,16.81,0,0,1-7.62-.45A7.37,7.37,0,0,1,55.1,33a4.23,4.23,0,0,1,.24-7c.34-.24.72-.42,1.14-.67-1.78-1.7-1.34-3.64,1.19-5.48,0-.14-.09-.18-.17-.24a6.24,6.24,0,0,1-2.77-6.4,6.27,6.27,0,0,1,4.79-5.52,9,9,0,0,1,6.67.37.47.47,0,0,0,.59-.1c1.73-1.62,3.84-1.69,6.08-1.49-.34,1.25-.65,2.44-1,3.64-.07.25-.18.35-.47.28a6,6,0,0,0-1.59-.1c-.51,0-.6.14-.32.61a6.71,6.71,0,0,1-5,10.19,10.44,10.44,0,0,1-3.57,0c-.38-.07-.52.08-.58.42A1.24,1.24,0,0,0,61.34,23a13.15,13.15,0,0,0,3.24.67,21.86,21.86,0,0,1,4.53.95C71,25.31,72.26,26.53,72.29,28.66ZM60,14.34a2.54,2.54,0,0,0,2.61,2.73,2.45,2.45,0,0,0,2.53-2.7,2.64,2.64,0,0,0-2.7-2.81A2.45,2.45,0,0,0,60,14.34Zm6.84,15.11c0-.64-.44-1-1-1.21a7.36,7.36,0,0,0-1.59-.44A32.76,32.76,0,0,1,59.44,27c-.27-.09-.36.09-.48.24a2.05,2.05,0,0,0,.63,3.13,7.33,7.33,0,0,0,3.48.77,8.08,8.08,0,0,0,2.78-.5C66.35,30.36,66.83,30.06,66.84,29.45Zm22.87-3.52H85.6a.48.48,0,0,1-.46-.31c-.14-.28-.3-.55-.42-.83s-.3-.34-.58-.12a7.16,7.16,0,0,1-4.07,1.6c-4.76.37-7.71-3.51-6.52-7.71.57-2,2.13-3,4-3.66a18.14,18.14,0,0,1,5.58-.68c.89,0,1-.21.72-1.07a2.28,2.28,0,0,0-2.06-1.45,9,9,0,0,0-4.92.75c-.51.23-.74.23-1-.33-.38-.9-.84-1.76-1.28-2.63-.16-.3-.13-.45.2-.6A15.55,15.55,0,0,1,85.4,7.78c2.79.73,4.28,2.87,4.34,6,0,1.71,0,3.41,0,5.42s-.21,4.17.24,6.39C90,25.87,89.93,25.93,89.71,25.93Zm-5.77-5.64V18.23c0-.2,0-.41-.29-.39a10.88,10.88,0,0,0-3.41.39,1.67,1.67,0,0,0-1.14,1.88,1.6,1.6,0,0,0,1.32,1.61,4.89,4.89,0,0,0,2.49-.09C84,21.36,83.94,21.34,83.94,20.29Z" transform="translate(0 0)" style="fill:#808083"/></g></g></svg>