<svg xmlns="http://www.w3.org/2000/svg" viewBox="0 0 200 62"><g id="Logo_Desktop" data-name="Logo Desktop"><g id="line"><g id="Group_24385" data-name="Group 24385"><path id="Rectangle_29812" data-name="Rectangle 29812" d="M27.61,56H60.3v1.24H27.61a.63.63,0,0,1-.63-.62h0A.63.63,0,0,1,27.61,56Z" style="fill:#fff"/></g><g id="Group_24386" data-name="Group 24386"><path id="Rectangle_29813" data-name="Rectangle 29813" d="M139.7,56h32.69a.63.63,0,0,1,.63.62h0a.63.63,0,0,1-.63.62H139.7Z" style="fill:#fff"/></g></g><g id="header"><path d="M73.14,51.8a3.3,3.3,0,0,1,1.31.89,1.86,1.86,0,0,1,.47,1.21,1.1,1.1,0,0,1-.26.75.89.89,0,0,1-.72.3.79.79,0,0,1-.66-.29,1,1,0,0,1-.22-.6,1.06,1.06,0,0,1,.3-.79,1.34,1.34,0,0,0-.85-.84,3.49,3.49,0,0,0-1.25-.23,2.88,2.88,0,0,0-1.65.49,3.26,3.26,0,0,0-1.15,1.45A5.59,5.59,0,0,0,68,56.42a6,6,0,0,0,.43,2.35,3.81,3.81,0,0,0,1.21,1.62,3,3,0,0,0,1.8.58,3.53,3.53,0,0,0,1.77-.49,3.85,3.85,0,0,0,1.37-1.21l.52.39a4.86,4.86,0,0,1-1.91,1.75,5.06,5.06,0,0,1-4.78,0,4.55,4.55,0,0,1-1.79-1.77A5.33,5.33,0,0,1,66,56.91a5.48,5.48,0,0,1,.67-2.64,5.42,5.42,0,0,1,1.86-2,4.79,4.79,0,0,1,2.69-.78A5.22,5.22,0,0,1,73.14,51.8Z" style="fill:#af82a4"/><path d="M85.5,52.35a4,4,0,0,1,.78,2.78l0,4.45a13,13,0,0,1-.08,1.35l1.42-.08v.83H84.74c0-.2-.09-.57-.14-1.13A4.39,4.39,0,0,1,81.46,62a3.39,3.39,0,0,1-2.23-.65,2.16,2.16,0,0,1-.77-1.71,2.47,2.47,0,0,1,.93-1.94,6.14,6.14,0,0,1,2.34-1.18,10.52,10.52,0,0,1,2.83-.36V54.93a4.41,4.41,0,0,0-.38-2,1.65,1.65,0,0,0-1.62-.72,2.81,2.81,0,0,0-1.18.25,1.68,1.68,0,0,0-.82.78,1.05,1.05,0,0,1,.26.75.83.83,0,0,1-.22.56.78.78,0,0,1-.64.27.84.84,0,0,1-.66-.27,1,1,0,0,1-.24-.7,1.74,1.74,0,0,1,.51-1.2A3.46,3.46,0,0,1,81,51.78a6.18,6.18,0,0,1,2-.32A3.18,3.18,0,0,1,85.5,52.35Zm-3.86,5.14a2,2,0,0,0-1.28,1.86,1.46,1.46,0,0,0,.44,1.13,1.63,1.63,0,0,0,1.12.39,3.25,3.25,0,0,0,1.38-.29,4.91,4.91,0,0,0,1.26-.88c0-.2,0-.53,0-1l0-1.86A7.46,7.46,0,0,0,81.64,57.49Z" style="fill:#af82a4"/><path d="M95.83,51.66a3.59,3.59,0,0,1,1.21.66l0-.76h.84V55H97.2a3.48,3.48,0,0,0-.71-2,2.47,2.47,0,0,0-3.26-.4,1.36,1.36,0,0,0-.53,1.06,1.41,1.41,0,0,0,.35,1,3,3,0,0,0,.87.68,13,13,0,0,0,1.4.61,15.67,15.67,0,0,1,1.68.77,3.52,3.52,0,0,1,1.09.94,2.25,2.25,0,0,1,.45,1.42,2.56,2.56,0,0,1-.49,1.6,3,3,0,0,1-1.28,1,4.35,4.35,0,0,1-1.69.33,5.5,5.5,0,0,1-1.72-.25A5,5,0,0,1,92,61.13l.08.69h-.84l-.12-3.4h.62a2.89,2.89,0,0,0,1.53,2.44,2.88,2.88,0,0,0,1.43.37,2.92,2.92,0,0,0,1.53-.41,1.28,1.28,0,0,0,.67-1.16,1.36,1.36,0,0,0-.33-.93,2.57,2.57,0,0,0-.82-.62c-.33-.17-.78-.36-1.37-.59a13.46,13.46,0,0,1-1.7-.74,3.41,3.41,0,0,1-1.1-.94,2.35,2.35,0,0,1-.46-1.5A3,3,0,0,1,91.46,53a2.61,2.61,0,0,1,1.08-1.11,4,4,0,0,1,2-.46A4.42,4.42,0,0,1,95.83,51.66Z" style="fill:#af82a4"/><path d="M105.14,59.58a8.78,8.78,0,0,1-.08,1.35l1.26-.06v.81h-4.08v-.59a1.06,1.06,0,0,0,.83-.29,1.24,1.24,0,0,0,.3-.73c0-.3,0-.76,0-1.4V54.16a12.7,12.7,0,0,1,.08-1.29l-1.42.08v-.83a7.3,7.3,0,0,0,1.69-.14,1.78,1.78,0,0,0,.79-.4h.58Zm-.13-12a1.2,1.2,0,0,1,.31.84,1.16,1.16,0,0,1-.33.83,1,1,0,0,1-.77.34,1,1,0,0,1-.74-.34,1.22,1.22,0,0,1,0-1.66,1,1,0,0,1,.75-.35A1,1,0,0,1,105,47.61Z" style="fill:#af82a4"/><path d="M118.54,52.54a5.7,5.7,0,0,1,.8,3.36v3.68a8.78,8.78,0,0,1-.08,1.35l1.26-.06v.81h-4.08v-.59a1.06,1.06,0,0,0,.83-.29,1.24,1.24,0,0,0,.3-.73c0-.3.05-.76.05-1.4V55.9a5,5,0,0,0-.56-2.56,1.86,1.86,0,0,0-1.7-.87,3.12,3.12,0,0,0-1.43.36,3.6,3.6,0,0,0-1.17.93c0,.15,0,.41,0,.77l0,5a8.78,8.78,0,0,1-.08,1.35l1.26-.06v.81h-4.08v-.59a1.06,1.06,0,0,0,.83-.29,1.23,1.23,0,0,0,.29-.71c0-.28,0-.76.06-1.42l0-4.51a8.26,8.26,0,0,1,.08-1.29l-1.42.08v-.83a6.47,6.47,0,0,0,1.62-.13,1.84,1.84,0,0,0,.74-.41h.58c0,.25,0,.66.08,1.21a5.94,5.94,0,0,1,1.55-1,4.47,4.47,0,0,1,1.71-.37A3,3,0,0,1,118.54,52.54Z" style="fill:#af82a4"/><path d="M131.5,52.13a4.89,4.89,0,0,1,1.83,1.81,5,5,0,0,1,.67,2.55,5.83,5.83,0,0,1-.67,2.78,5.25,5.25,0,0,1-1.82,2A4.65,4.65,0,0,1,129,62a5.09,5.09,0,0,1-2.53-.64,4.77,4.77,0,0,1-1.82-1.8,5,5,0,0,1-.67-2.59,5.93,5.93,0,0,1,.66-2.8,5,5,0,0,1,1.81-2,4.73,4.73,0,0,1,2.55-.73A5,5,0,0,1,131.5,52.13Zm-4.77,1.3a5.5,5.5,0,0,0-.75,3,7.83,7.83,0,0,0,.35,2.36,4.06,4.06,0,0,0,1.06,1.77,2.42,2.42,0,0,0,1.73.68A2.32,2.32,0,0,0,131.27,60a5.8,5.8,0,0,0,.69-3,7.3,7.3,0,0,0-.75-3.43A2.4,2.4,0,0,0,129,52.22,2.45,2.45,0,0,0,126.73,53.43Z" style="fill:#af82a4"/></g><g id="text"><path d="M80.07,3.27A2.18,2.18,0,0,1,79.24,5a3.2,3.2,0,0,1-2.2.73,2.8,2.8,0,0,1-1.86-.59,1.76,1.76,0,0,1-.68-1.32A4.52,4.52,0,0,1,74.63,3a2.8,2.8,0,0,0,.09-.7.86.86,0,0,0-.27-.69,1.21,1.21,0,0,0-.87-.33,1.37,1.37,0,0,0-1.09.53,2.57,2.57,0,0,0-.44,1.7l0,3.85v.1a.56.56,0,0,1-.57.56H66.41a.56.56,0,0,1-.56-.56v0a6.75,6.75,0,0,1,2.37-5.28A9.3,9.3,0,0,1,74.64,0a6.74,6.74,0,0,1,4.09,1A2.84,2.84,0,0,1,80.07,3.27Z" style="fill:#fff;fill-rule:evenodd"/><path id="Path_238146" data-name="Path 238146" d="M41.7,13.87h0a.4.4,0,0,0-.41-.4H29.81a.77.77,0,0,0-.71.46L21.26,32.58a.26.26,0,0,1-.48,0L12.66,13.92a.77.77,0,0,0-.7-.45H.42a.4.4,0,0,0-.41.4H0a.41.41,0,0,0,.41.41H1A4.25,4.25,0,0,1,3,14.71a2.2,2.2,0,0,1,1,1,9.61,9.61,0,0,1,.25,2.83V37.4c0,1.34,0,2.08,0,2.24a4,4,0,0,1-.7,1.61,3,3,0,0,1-1.32.91,5.09,5.09,0,0,1-1.89.33H0v.43a.38.38,0,0,0,.39.38H10a.38.38,0,0,0,.39-.38v0a.38.38,0,0,0-.38-.38,5.41,5.41,0,0,1-2.69-.71A3.13,3.13,0,0,1,6.1,40,17.56,17.56,0,0,1,6,37.29v-21L17.75,43.06a.42.42,0,0,0,.37.24h0a.42.42,0,0,0,.38-.24l11.58-27v22.1A11.44,11.44,0,0,1,29.84,41a2.17,2.17,0,0,1-.9,1.06,4.37,4.37,0,0,1-2.16.47h-.6a.38.38,0,0,0-.39.37v.06a.38.38,0,0,0,.39.38H37.41V18.52a8.8,8.8,0,0,1,.25-2.75,2.19,2.19,0,0,1,.9-1,4.41,4.41,0,0,1,2.15-.46h.58A.41.41,0,0,0,41.7,13.87Z" style="fill:#fff;fill-rule:evenodd"/><path id="Path_238147" data-name="Path 238147" d="M97.33,32.09V29.35h0a12.64,12.64,0,0,0-1.22-5.08,8.91,8.91,0,0,0-3.58-3.94A10,10,0,0,0,87.42,19a8.66,8.66,0,0,0-7.17,3.29,11.89,11.89,0,0,0-2.61,7.11h0V32.5A11.81,11.81,0,0,0,80.19,40,8.76,8.76,0,0,0,87.5,43.3a9,9,0,0,0,7.57-3.56,11.67,11.67,0,0,0,2.28-7.33c0-.1,0-.21,0-.31Zm-6.59,0h0a42.6,42.6,0,0,1-.44,7,3.61,3.61,0,0,1-1.17,2.09,2.54,2.54,0,0,1-1.68.55A2.5,2.5,0,0,1,85.59,41a4.21,4.21,0,0,1-1.06-2.38,29.32,29.32,0,0,1-.32-4.4c0-.74,0-1.44,0-2.1h0V29.54h0q0-3,.24-4.83a5.77,5.77,0,0,1,1.08-3.35,2.67,2.67,0,0,1,2-.85,2.44,2.44,0,0,1,1.54.47,3.93,3.93,0,0,1,1.25,2,20.66,20.66,0,0,1,.43,5.14c0,.48,0,1,0,1.4h0Z" style="fill:#fff;fill-rule:evenodd"/><path id="Path_238148" data-name="Path 238148" d="M127.2,40.71a1.34,1.34,0,0,1-.79-.31,1.66,1.66,0,0,1-.59-.84,9.36,9.36,0,0,1-.17-2.3V16h3.88a1.1,1.1,0,0,0,1.11-1.09h0a1.09,1.09,0,0,0-1.11-1.08h-3.88V6.26h-.74a24.88,24.88,0,0,1-3.47,4.82,28.82,28.82,0,0,1-4.82,4.12V16h2.74v4.42a1.13,1.13,0,0,0,.39.85,5.45,5.45,0,0,1,.71,7.42,6.47,6.47,0,0,1-.72.76,1.13,1.13,0,0,0-.38.85v5.42a20.36,20.36,0,0,0,.23,4.05,4.8,4.8,0,0,0,1.76,2.42,5.3,5.3,0,0,0,3.39,1.09c2.72,0,4.69-1.4,5.91-4.22l-.68-.48C129.1,40,128.17,40.71,127.2,40.71Z" style="fill:#fff;fill-rule:evenodd"/><path id="Path_238149" data-name="Path 238149" d="M152.3,38.21V22.11h-8.14a.42.42,0,0,0-.42.42v0a.42.42,0,0,0,.36.41h0a2,2,0,0,1,1.73,1.54,9.63,9.63,0,0,1,.17,2.08v11a8.83,8.83,0,0,1-2.16,2.32,2.66,2.66,0,0,1-1.46.41,1.75,1.75,0,0,1-1.06-.33,1.81,1.81,0,0,1-.68-1,11.27,11.27,0,0,1-.21-2.84v-14h-8.15a.42.42,0,0,0-.42.42v0a.42.42,0,0,0,.36.41h0A2,2,0,0,1,134,24.5a9.69,9.69,0,0,1,.17,2.08v8.15a18.3,18.3,0,0,0,.48,5,5.19,5.19,0,0,0,1.85,2.49,5,5,0,0,0,3.16,1.07,7.06,7.06,0,0,0,3.37-.8,10.87,10.87,0,0,0,3-2.56v2.75h8.14a.42.42,0,0,0,.43-.42h0a.42.42,0,0,0-.36-.4h0a2.16,2.16,0,0,1-1.76-1.75A9.65,9.65,0,0,1,152.3,38.21Z" style="fill:#fff;fill-rule:evenodd"/><path id="Path_238150" data-name="Path 238150" d="M178.34,38.17v-8a20.54,20.54,0,0,0-.36-4.82,5.21,5.21,0,0,0-1.8-2.76,5.11,5.11,0,0,0-3.39-1.11,6.69,6.69,0,0,0-3.19.78,12.09,12.09,0,0,0-3.1,2.5V22.08h-8.15a.42.42,0,0,0-.42.42v0a.42.42,0,0,0,.36.41,2.78,2.78,0,0,1,1.48.71,5.93,5.93,0,0,1,.44,2.91V38.17A10.67,10.67,0,0,1,160.1,40a2.2,2.2,0,0,1-1.79,1.85h0a.41.41,0,0,0-.36.41h0a.41.41,0,0,0,.42.41h9.79a.41.41,0,0,0,.42-.41v0a.41.41,0,0,0-.34-.4h0a1.91,1.91,0,0,1-1.49-1.4,9.1,9.1,0,0,1-.21-2.25v-11c1.09-1.79,2.28-2.7,3.56-2.71a1.65,1.65,0,0,1,.82.19,1.93,1.93,0,0,1,1,1.19A14.88,14.88,0,0,1,172,29v9.16a8.91,8.91,0,0,1-.19,2.17,2,2,0,0,1-1.52,1.48h0a.42.42,0,0,0-.33.4v0a.42.42,0,0,0,.42.42h9.79a.42.42,0,0,0,.42-.41h0a.42.42,0,0,0-.36-.41h0a2,2,0,0,1-1.71-1.51A9.22,9.22,0,0,1,178.34,38.17Z" style="fill:#fff;fill-rule:evenodd"/><path id="Path_238151" data-name="Path 238151" d="M196.92,39.22a4.32,4.32,0,0,1-2.45.73,4.73,4.73,0,0,1-3.73-1.82,10.51,10.51,0,0,1-2.23-6.47h10.68a.8.8,0,0,0,.81-.85,11,11,0,0,0-2.48-6.75A7.26,7.26,0,0,0,192,21.5a8.84,8.84,0,0,0-6.66,3,11.56,11.56,0,0,0-2.84,8.2,12.22,12.22,0,0,0,1.94,7,8,8,0,0,0,7.08,3.52,8.31,8.31,0,0,0,4.79-1.42,12.63,12.63,0,0,0,3.6-4.45.48.48,0,0,0-.18-.6h0A.49.49,0,0,0,199,37,9.68,9.68,0,0,1,196.92,39.22Zm-8.52-9.81a9.46,9.46,0,0,1,1.33-5.36,2.19,2.19,0,0,1,1.91-1.12,1.84,1.84,0,0,1,1.26.39,4,4,0,0,1,1.22,2,19.36,19.36,0,0,1,.4,4.86h-6.11Z" style="fill:#fff;fill-rule:evenodd"/><path d="M75.2,42.92h0a.39.39,0,0,1-.39.38H63.2a.39.39,0,0,1-.39-.38v0a.38.38,0,0,1,.37-.38,5.21,5.21,0,0,0,1.65-.33,1.22,1.22,0,0,0,.29-.17,1.69,1.69,0,0,0,.61-1,8.76,8.76,0,0,0,.13-1.82V20.42a.57.57,0,0,1,.57-.56h5.1a.56.56,0,0,1,.56.56V39.16a9.94,9.94,0,0,0,0,1.15,2.53,2.53,0,0,0,2.64,2.23h0A.39.39,0,0,1,75.2,42.92Z" style="fill:#fff;fill-rule:evenodd"/><path id="Path_238154" data-name="Path 238154" d="M114.24,22.11a5.59,5.59,0,0,0-3,1.05,11.74,11.74,0,0,0-2.7,2.84c-.32.42-.64.89-1,1.39V23.44a.72.72,0,0,0-.72-.71H99.39a.43.43,0,0,0-.43.43h0a.43.43,0,0,0,.37.42,3.25,3.25,0,0,1,1.13.36,1.69,1.69,0,0,1,.66.9,8.45,8.45,0,0,1,.18,2.24V38.46c0,1.79-.16,2.89-.49,3.31a2.53,2.53,0,0,1-1.49.72.41.41,0,0,0-.36.4h0a.41.41,0,0,0,.41.41H109.9a.41.41,0,0,0,.41-.41h0a.41.41,0,0,0-.37-.4,4.27,4.27,0,0,1-1.41-.33,1.76,1.76,0,0,1-.8-.86,5.16,5.16,0,0,1-.16-1.61l0-1.23V33.73a14.48,14.48,0,0,1,.72-4.71,5.05,5.05,0,0,1,.71-1.41,3.57,3.57,0,0,1,.68-.72,1.89,1.89,0,0,1,1.23-.49,1,1,0,0,1,.52.13c.36.26.71.54,1,.83a3,3,0,0,0,2.07.75,2.25,2.25,0,0,0,1.76-.81A3.33,3.33,0,0,0,117,25a2.89,2.89,0,0,0-.76-2.14A2.71,2.71,0,0,0,114.24,22.11Z" style="fill:#fff;fill-rule:evenodd"/><path id="Path_238155" data-name="Path 238155" d="M54.86,22.08a5.5,5.5,0,0,0-3,1,7.49,7.49,0,0,0-1.45,1.3A20.47,20.47,0,0,0,49,26.19h0c-.25.36-.51.75-.79,1.17v-4a.71.71,0,0,0-.72-.71H42.89a.92.92,0,0,0-.93.91V43.26h8.58a.38.38,0,0,0,.39-.38v-.06a.39.39,0,0,0-.35-.38l-.2,0a3.32,3.32,0,0,1-1.24-.3,1.62,1.62,0,0,1-.75-.86,5.92,5.92,0,0,1-.2-1.61l0-1.23V33.68a15,15,0,0,1,.72-4.7,5.29,5.29,0,0,1,.53-1.13,4,4,0,0,1,.87-1l.1-.08a1.9,1.9,0,0,1,1.14-.4.9.9,0,0,1,.51.13,11.93,11.93,0,0,1,1,.84,3.06,3.06,0,0,0,2.07.74,2.25,2.25,0,0,0,1.76-.81A3.28,3.28,0,0,0,57.63,25a2.89,2.89,0,0,0-.76-2.14A2.66,2.66,0,0,0,54.86,22.08Z" style="fill:#fff;fill-rule:evenodd"/></g><g id="papion"><path d="M65,11.49V16a.47.47,0,0,1-.34.45l-2.6.78-1.5.45-1,.29a1.7,1.7,0,0,1-2.21-1.6V11.12a1.69,1.69,0,0,1,1.7-1.67,1.75,1.75,0,0,1,.51.07L64.65,11A.47.47,0,0,1,65,11.49Z" style="fill:#af82a4;fill-rule:evenodd"/><path d="M73.08,16V11.49a.48.48,0,0,1,.34-.45L76,10.26l1.5-.45,1-.29A1.79,1.79,0,0,1,79,9.45a1.69,1.69,0,0,1,1.71,1.67v5.21a1.7,1.7,0,0,1-2.21,1.6l-5.07-1.52A.47.47,0,0,1,73.08,16Z" style="fill:#af82a4;fill-rule:evenodd"/><path id="Path_238158" data-name="Path 238158" d="M70.11,11H68a.78.78,0,0,0-.22,0,.75.75,0,0,0-.54.72v4.09a.74.74,0,0,0,.54.72.78.78,0,0,0,.22,0h2.14a.54.54,0,0,0,.22,0,.74.74,0,0,0,.54-.7v-4.1a.74.74,0,0,0-.54-.71A.54.54,0,0,0,70.11,11Z" style="fill:#af82a4;fill-rule:evenodd"/></g></g></svg>