<?xml version="1.0" encoding="UTF-8" standalone="no"?>
<!DOCTYPE svg PUBLIC "-//W3C//DTD SVG 1.1//EN" "http://www.w3.org/Graphics/SVG/1.1/DTD/svg11.dtd">
<svg version="1.1" xmlns="http://www.w3.org/2000/svg" xmlns:xlink="http://www.w3.org/1999/xlink" preserveAspectRatio="xMidYMid meet" viewBox="0 0 640 158" width="640" height="158"><defs><path d="M83.64 0.34C116.38 -2.91 148.43 17.23 161.35 47.19C169.5 65.63 170.13 87.16 163.18 106.07C157.42 121.8 146.83 135.3 132.92 144.63C118.25 154.46 100.7 159.06 83.09 157.67C88.85 156.46 94.44 155.72 100.12 153.95C116.99 148.6 131.75 137.31 141.52 122.58C152.2 106.64 156.77 86.82 153.99 67.84C151.54 50.29 142.88 33.81 129.97 21.71C117.62 9.88 101.75 2.79 84.85 0.59C84.82 0.59 84.72 0.57 84.52 0.54C84.05 0.43 83.75 0.37 83.64 0.34Z" id="df0YrPODr"></path><path d="M104.38 12.54C90.25 35.16 72.72 55.47 52.4 72.75C38.06 84.85 22.29 95.4 5.06 102.94C2.56 93.65 -0.76 83.35 0.16 73.67C2 62.12 4.3 51.18 10.45 41.06C22.25 20.67 44.35 7.21 67.81 5.71C80.6 4.65 92.65 7.73 104.38 12.54Z" id="e1Nph4aTBQ"></path><path d="M137.85 46.15C134.86 49.81 130.8 52.8 127.13 55.76C94.31 81.52 56.79 100.56 15.44 107.66C48.52 87.51 76.53 60.03 97.3 27.33C100.31 22.82 102.78 17.96 105.93 13.59C119.8 20.15 131.08 32.52 137.85 46.15Z" id="bS9DOtWZv"></path><path d="M144.35 88.06C144.31 90.47 141.36 90.89 139.67 91.98C113.73 103.65 85.91 111.57 57.62 114.7C43.71 116.06 30.09 116.97 16.15 115.33C45.13 108.75 72.86 96.49 97.62 80.11C112.05 70.43 126.3 59.67 138.3 47.07C144.12 59.9 146.21 74.1 144.35 88.06Z" id="bvAkQ5lMm"></path><path d="M481.11 126.78C477.74 127.2 472.93 127.99 469.88 126.27C469.32 121.92 469.3 31.71 469.88 26.87C473.15 25.34 477.59 25.94 481.08 26.42C481.94 32.34 481.47 124.62 481.11 126.78ZM252.72 27.38C252.79 30.72 252.78 34.06 252.72 37.41C243.08 37.59 233.44 37.37 223.8 37.5C220.08 37.63 215.48 37.85 212.39 40.18C209.33 42.58 209.18 46.76 208.99 50.32C208.89 56.88 209.03 63.44 208.96 70.01C223.42 70.14 237.9 69.86 252.37 70.17C252.63 73.4 253.26 77.08 252.18 80.17C237.92 81.31 223.31 80.33 208.97 80.65C209.03 88.54 208.89 96.43 208.97 104.3C209.15 107.81 209.32 111.98 212.34 114.33C215.45 116.67 220.03 116.92 223.77 117.02C233.41 117.11 243.08 116.87 252.72 117.15C252.76 120.55 252.76 123.94 252.66 127.33C243.6 128.41 234.37 128.19 225.26 128.3C217.82 128.24 209.01 127.22 203.3 121.93C197.86 117.01 196.68 109.9 196.58 102.89C196.56 77.33 196.58 56.88 196.58 51.77C196.66 44.71 197.82 37.7 203.24 32.68C209.06 27.32 217.77 26.3 225.31 26.27C234.42 26.35 243.66 26.24 252.72 27.38ZM514.03 26.77C514.6 31.66 514.22 123.84 513.9 127.04C510.17 127.19 506.46 127.2 502.74 127.04C501.29 102.99 501.71 35.59 502.86 26.07C506.45 26.1 510.63 25.54 514.03 26.77ZM365.58 53.05C370.99 53.22 377.03 52.33 382.24 53.91C382.67 56.5 383.26 60.25 381.92 62.58C376.92 63.97 370.84 62.99 365.62 63.23C365.56 78.87 365.62 94.51 365.58 110.15C365.77 112.92 365.38 115.94 367.95 117.73C372.36 119.35 378.22 117.47 382.4 119.19C383.44 121.36 382.97 124.47 383.26 126.87C376.18 128.39 367.46 129.27 360.61 126.42C354.21 123.42 353.77 116.33 353.51 110.13C353.42 94.5 353.51 78.85 353.49 63.24C348.38 62.71 343.27 62.18 338.2 61.29C338.15 58.74 338.15 56.18 338.2 53.62C343.38 53.02 348.52 52.99 353.71 52.95C353.45 47.9 353.35 42.88 354 37.86C357.77 36.95 361.61 36.43 365.48 36.29C365.64 41.88 365.59 47.46 365.58 53.05ZM281.11 101.41C281.26 106.89 282.12 113.7 287.67 116.37C296.3 120.1 305.69 116.34 313.7 112.78C313.92 93.4 313.38 73.89 313.96 54.54C316.7 52.09 322.08 52.77 325.29 53.92C325.65 56.07 325.65 58.33 325.66 60.5C325.55 90.4 325.66 114.34 325.66 120.32C325.62 122.54 325.61 124.67 325.17 126.85C321.55 127.44 317.61 127.12 313.97 126.85C313.87 125.31 313.78 123.76 313.68 122.22C306.99 125.8 300.1 128.44 292.37 128.27C284.76 128.25 277.4 125.68 273.34 118.88C267.81 109.7 269.48 98.45 269.22 88.22C269.49 76.83 268.68 65.24 269.61 53.92C273.54 52.26 277.04 53.31 281.05 53.86C281.17 69.72 281.02 85.57 281.11 101.41ZM618.1 58.34C624.92 54.16 631.76 51.55 639.94 52.45C639.99 55.57 640.09 58.85 639.69 61.94C632.05 62.95 625.34 63.99 618.6 67.98C618.53 85.92 618.58 103.9 618.58 121.83C618.39 123.57 618.87 125.9 617.12 126.95C614.01 127.26 609.68 127.87 606.89 126.27C606.49 122.87 606.48 74.57 606.74 53.91C610.56 52.76 614.16 53.03 618.03 53.75C618.05 55.28 618.07 56.81 618.1 58.34ZM445.06 60.97C437.62 52.44 425.32 51.04 414.76 53.02C406.42 54.59 399.39 60.17 395.98 67.95C391.98 76.46 393.41 86.32 393.14 95.54C393.01 103.76 394.19 111.64 399.38 118.29C404.58 124.86 412.52 127.69 420.68 128.17C430.61 128.58 440.55 127.57 450.2 125.18C450.2 122.24 450.2 119.29 450.17 116.36C440.44 116.65 430.32 118.3 420.62 117.62C415.97 117.22 411.64 115.62 408.78 111.75C404.98 106.52 405.12 100.1 404.83 93.92C418.38 93.93 431.94 93.89 445.48 93.96C447.71 93.91 449.8 93.98 451.96 93.33C453.25 82.88 452.56 69.19 445.06 60.97ZM410.04 67.37C415.49 61.81 425.8 61.49 432.46 64.83C439.85 68.99 440.02 77.47 440.47 84.97C428.54 84.96 416.63 85.06 404.7 84.9C405.22 78.58 405.35 72.25 410.04 67.37ZM584.17 61.9C577.1 53 565.49 51.22 554.8 52.7C546.3 53.91 538.67 58.87 534.9 66.67C530.48 75.38 531.28 84.64 531.21 94.07C531.21 102.63 532.26 111.5 537.77 118.41C543.06 124.99 550.98 127.73 559.2 128.18C568.86 128.56 578.67 127.48 588.1 125.39C588.34 122.4 588.53 119.41 588.67 116.41C578.99 116.54 568.81 118.3 559.17 117.62C554.49 117.24 550.11 115.78 547.2 111.9C543.29 106.6 543.4 100.18 543.29 93.91C558.96 93.85 574.63 94.05 590.29 93.79C591.21 83.03 591.24 70.79 584.17 61.9ZM549.17 66.52C554.87 61.86 564.34 61.61 570.77 64.8C578.16 69.05 578.23 77.42 578.82 84.94C566.9 84.97 554.99 85.04 543.08 84.9C543.59 77.98 543.66 71.54 549.17 66.52Z" id="c3IVfflbK"></path><path d="M111.28 138.98C95.91 148.77 76.93 152.46 59.04 148.96C42.04 145.72 27.19 136.1 16.02 123.05C58.1 123.74 100.42 113.3 137.76 94C139.87 92.9 141.99 91.82 144.12 90.73C140.2 110.49 128.38 128.26 111.28 138.98Z" id="b44LIbtGfY"></path></defs><g><g><g><use xlink:href="#df0YrPODr" opacity="1" fill="#f20017" fill-opacity="1"></use><g><use xlink:href="#df0YrPODr" opacity="1" fill-opacity="0" stroke="#000000" stroke-width="1" stroke-opacity="0"></use></g></g><g><use xlink:href="#e1Nph4aTBQ" opacity="1" fill="#0f2b8d" fill-opacity="1"></use><g><use xlink:href="#e1Nph4aTBQ" opacity="1" fill-opacity="0" stroke="#000000" stroke-width="1" stroke-opacity="0"></use></g></g><g><use xlink:href="#bS9DOtWZv" opacity="1" fill="#0a6726" fill-opacity="1"></use><g><use xlink:href="#bS9DOtWZv" opacity="1" fill-opacity="0" stroke="#000000" stroke-width="1" stroke-opacity="0"></use></g></g><g><use xlink:href="#bvAkQ5lMm" opacity="1" fill="#62ac1e" fill-opacity="1"></use><g><use xlink:href="#bvAkQ5lMm" opacity="1" fill-opacity="0" stroke="#000000" stroke-width="1" stroke-opacity="0"></use></g></g><g><use xlink:href="#c3IVfflbK" opacity="1" fill="#ffffff" fill-opacity="1"></use><g><use xlink:href="#c3IVfflbK" opacity="1" fill-opacity="0" stroke="#000000" stroke-width="1" stroke-opacity="0"></use></g></g><g><use xlink:href="#b44LIbtGfY" opacity="1" fill="#0f2b8d" fill-opacity="1"></use><g><use xlink:href="#b44LIbtGfY" opacity="1" fill-opacity="0" stroke="#000000" stroke-width="1" stroke-opacity="0"></use></g></g></g></g></svg>