<?xml version="1.0" encoding="UTF-8" standalone="no"?>
<!DOCTYPE svg PUBLIC "-//W3C//DTD SVG 1.1//EN" "http://www.w3.org/Graphics/SVG/1.1/DTD/svg11.dtd">
<svg version="1.1" xmlns="http://www.w3.org/2000/svg" xmlns:xlink="http://www.w3.org/1999/xlink" preserveAspectRatio="xMidYMid meet" viewBox="0 0 640 498" width="640" height="498"><defs><path d="M626.9 491.13L626.9 492.44C627.65 492.44 628.07 492.44 628.15 492.44C628.38 492.45 628.61 492.38 628.8 492.26C629.06 492.06 629.11 491.69 628.92 491.43C628.88 491.38 628.84 491.34 628.8 491.31C628.61 491.19 628.38 491.12 628.15 491.13C627.98 491.13 627.57 491.13 626.9 491.13ZM628.12 490.24C628.64 490.2 629.15 490.35 629.57 490.66C629.9 490.94 630.09 491.35 630.07 491.79C630.08 492.15 629.93 492.51 629.66 492.76C629.34 493.05 628.93 493.21 628.5 493.24C628.61 493.36 629.14 493.97 630.1 495.07L628.86 495.07L627.41 493.27L626.9 493.27L626.9 495.07L625.9 495.07L625.9 490.24C627.08 490.24 627.82 490.24 628.12 490.24ZM627.82 496.73C628.36 496.75 628.9 496.64 629.39 496.41C629.87 496.2 630.3 495.91 630.67 495.55C631.04 495.17 631.33 494.73 631.53 494.24C631.74 493.75 631.85 493.21 631.85 492.67C631.88 491.57 631.45 490.5 630.67 489.71C630.3 489.34 629.87 489.04 629.39 488.82C628.89 488.63 628.36 488.53 627.82 488.53C627.28 488.53 626.73 488.63 626.22 488.82C625.73 489.03 625.29 489.33 624.92 489.71C624.54 490.06 624.24 490.5 624.06 490.99C623.83 491.49 623.72 492.03 623.73 492.59C623.72 493.13 623.83 493.66 624.06 494.16C624.23 494.65 624.53 495.1 624.92 495.46C625.29 495.83 625.74 496.12 626.22 496.32C626.72 496.55 627.27 496.66 627.82 496.64M627.82 487.37C628.54 487.36 629.24 487.5 629.9 487.79C630.53 488.05 631.1 488.43 631.59 488.91C633.1 490.39 633.55 492.65 632.71 494.6C632.17 495.86 631.16 496.86 629.9 497.39C628.56 497.94 627.06 497.94 625.72 497.39C625.08 497.12 624.5 496.74 624 496.26C623.53 495.77 623.15 495.21 622.87 494.6C621.78 491.97 623.02 488.95 625.65 487.86C625.71 487.83 625.77 487.81 625.84 487.79C626.5 487.49 627.22 487.35 627.94 487.37M137.87 468.7C137.87 459.49 143.79 451.9 153.78 451.9C163.76 451.9 169.63 459.16 169.63 468.7C169.63 478.24 163.23 485.53 153.78 485.53C144.33 485.53 137.87 477.95 137.87 468.7M180.39 468.7L180.39 442.45L168.89 442.45C168.89 446.27 168.89 448.4 168.89 448.82C164.93 443.73 158.74 440.87 152.3 441.15C137.48 441.15 126.04 452.67 126.04 468.7C126.04 484.73 137.57 496.29 152.3 496.29C158.75 496.57 164.94 493.7 168.89 488.59C168.89 489.01 168.89 491.15 168.89 494.99L180.33 494.99L180.39 468.7ZM566.34 468.7C566.34 459.49 572.27 451.9 582.28 451.9C591.73 451.9 598.1 459.16 598.1 468.7C598.1 478.24 591.73 485.53 582.28 485.53C572.39 485.53 566.34 477.95 566.34 468.7M608.89 468.7L608.89 421.3L597.33 421.3C597.33 437.76 597.33 446.9 597.33 448.73C593.37 443.64 587.19 440.78 580.74 441.06C565.93 441.06 554.46 452.59 554.46 468.61C554.46 484.64 566.01 496.2 580.74 496.2C587.19 496.48 593.38 493.61 597.33 488.5C597.33 488.92 597.33 491.06 597.33 494.9L608.77 494.9L608.89 468.7ZM322.16 451.37C329.51 451.37 334.25 455.96 335.44 464.11C332.71 464.11 310.88 464.11 308.15 464.11C309.36 456.53 314.07 451.37 322.1 451.37M322.31 441.15C306.93 441.15 296.15 452.35 296.15 468.7C296.15 485.06 307.38 496.29 323.08 496.29C330.92 496.56 338.58 493.94 344.62 488.94C344.06 488.09 339.58 481.31 339.02 480.47C334.68 483.95 329.3 485.89 323.73 485.98C315.88 486.62 308.93 480.92 308.03 473.09C311.93 473.09 343.15 473.09 347.05 473.09C347.05 471.7 347.26 470.13 347.26 468.7C347.26 452.35 337.04 441.15 322.31 441.15M460.24 468.7C460.24 459.49 466.16 451.9 476.18 451.9C485.63 451.9 492 459.16 492 468.7C492 478.24 485.63 485.53 476.18 485.53C466.28 485.53 460.24 477.95 460.24 468.7M502.76 468.7L502.76 442.45L491.35 442.45C491.35 446.27 491.35 448.4 491.35 448.82C487.38 443.73 481.2 440.88 474.76 441.15C459.94 441.15 448.47 452.67 448.47 468.7C448.47 484.73 460.03 496.29 474.76 496.29C481.21 496.56 487.39 493.69 491.35 488.59C491.35 489.01 491.35 491.15 491.35 494.99L502.76 494.99L502.76 468.7ZM395.73 468.7C395.73 484.64 406.81 496.29 423.76 496.29C430.62 496.64 437.35 494.41 442.64 490.04C442.09 489.11 437.7 481.72 437.16 480.79C433.21 483.82 428.38 485.48 423.41 485.53C414.12 484.86 407.14 476.78 407.82 467.5C408.42 459.15 415.06 452.51 423.41 451.9C428.38 451.95 433.21 453.62 437.16 456.64C437.7 455.72 442.09 448.32 442.64 447.4C437.35 443.03 430.62 440.8 423.76 441.15C406.81 441.15 395.73 452.79 395.73 468.7M542.99 441.15C537.32 440.99 532.01 443.93 529.13 448.82C529.13 448.4 529.13 446.27 529.13 442.45L517.81 442.45L517.81 494.99L529.24 494.99C529.24 477.31 529.24 467.5 529.24 465.53C529.24 456.85 532.98 452.02 540.47 452.02C542.92 451.99 545.34 452.43 547.61 453.33C547.97 452.25 550.79 443.65 551.14 442.57C548.52 441.64 545.77 441.16 542.99 441.15M236.74 446.72C230.27 442.88 222.84 440.98 215.32 441.24C202.01 441.24 193.45 447.61 193.45 458.04C193.45 466.6 199.82 471.87 211.59 473.53C212.12 473.61 216.44 474.23 216.98 474.3C223.26 475.19 226.19 476.82 226.19 479.79C226.19 483.84 222.01 486.16 214.34 486.16C208.06 486.34 201.91 484.41 196.86 480.67C196.32 481.56 192.03 488.67 191.5 489.56C198.14 494.22 206.11 496.61 214.22 496.38C229.39 496.38 238.19 489.24 238.19 479.25C238.19 470.01 231.29 465.18 219.85 463.55C219.31 463.47 215 462.83 214.46 462.75C209.51 462.1 205.57 461.12 205.57 457.59C205.57 454.07 209.3 451.46 215.59 451.46C221.34 451.54 226.98 453.09 231.97 455.96C232.92 454.11 235.79 448.57 236.74 446.72ZM384.12 441.24C378.45 441.08 373.15 444.02 370.28 448.91C370.28 448.49 370.28 446.36 370.28 442.54L358.96 442.54L358.96 495.07L370.37 495.07C370.37 477.4 370.37 467.59 370.37 465.62C370.37 456.94 374.1 452.11 381.57 452.11C384.01 452.08 386.44 452.52 388.71 453.41C389.06 452.34 391.88 443.73 392.24 442.66C389.62 441.73 386.87 441.25 384.09 441.24M286.64 442.54L267.97 442.54L267.97 426.78L256.41 426.78L256.41 442.69L245.93 442.69L245.93 453.12L256.56 453.12C256.56 467.5 256.56 475.49 256.56 477.09C256.56 489.27 261.3 496.53 274.81 496.53C279.86 496.54 284.81 495.13 289.1 492.47C288.77 491.49 286.14 483.67 285.81 482.69C282.74 484.51 279.27 485.52 275.7 485.65C269.99 485.65 268.12 482.13 268.12 476.76C268.12 475.18 268.12 467.28 268.12 453.06L286.81 453.06L286.64 442.54ZM115.88 495.07C115.88 475.29 115.88 464.29 115.88 462.1C115.88 449.68 107.97 441.36 95.14 441.36C87.81 440.84 80.77 444.33 76.74 450.48C73.06 444.42 66.34 440.87 59.26 441.24C53.11 440.92 47.26 443.89 43.88 449.03C43.88 448.6 43.88 446.43 43.88 442.54L32.59 442.54L32.59 495.07L44.12 495.07C44.12 477.6 44.12 467.89 44.12 465.95C44.12 456.82 49.19 451.99 57.01 451.99C64.83 451.99 68.41 456.94 68.41 465.83C68.41 467.78 68.41 477.53 68.41 495.07L80 495.07C80 477.6 80 467.89 80 465.95C80 456.82 85.27 451.99 92.86 451.99C100.44 451.99 104.39 456.94 104.39 465.83C104.39 467.78 104.39 477.53 104.39 495.07L115.88 495.07Z" id="dWly6tNo"></path><path d="M634.07 320.44L634.07 312.76L632.09 312.76L629.78 318.01L627.47 312.76L625.45 312.76L625.45 320.44L626.87 320.44L626.87 314.51L629.04 319.52L630.52 319.52L632.68 314.51L632.68 320.44L634.07 320.44ZM621.39 320.44L621.39 314.19L623.94 314.19L623.94 312.88L617.42 312.88L617.42 314.19L619.97 314.19L619.97 320.56L621.39 320.44Z" id="bkY9oBWek"></path><path d="M406.55 353.41L233.45 353.41L233.45 42.3L406.55 42.3L406.55 353.41Z" id="b4vv817rg"></path><path d="M244.53 197.89C244.46 137.21 272.29 79.87 320 42.39C234.09 -25.09 109.74 -10.15 42.26 75.76C-25.23 161.67 -10.29 286.02 75.62 353.5C147.34 409.84 248.28 409.84 320 353.5C272.25 316.04 244.39 258.7 244.44 198.01" id="as17ntGrf"></path><path d="M640 197.89C639.97 307.13 551.38 395.67 442.14 395.64C397.84 395.63 354.83 380.75 320 353.39C405.91 285.93 420.87 161.6 353.41 75.69C343.65 63.25 332.43 52.04 320 42.27C405.94 -25.19 530.31 -10.22 597.78 75.73C625.13 110.57 640 153.59 640 197.89" id="b4y1yEQRTZ"></path></defs><g><g><g><use xlink:href="#dWly6tNo" opacity="1" fill="#ffffff" fill-opacity="1"></use><g><use xlink:href="#dWly6tNo" opacity="1" fill-opacity="0" stroke="#000000" stroke-width="1" stroke-opacity="0"></use></g></g><g><use xlink:href="#bkY9oBWek" opacity="1" fill="#f79410" fill-opacity="1"></use><g><use xlink:href="#bkY9oBWek" opacity="1" fill-opacity="0" stroke="#000000" stroke-width="1" stroke-opacity="0"></use></g></g><g><use xlink:href="#b4vv817rg" opacity="1" fill="#ff5f00" fill-opacity="1"></use><g><use xlink:href="#b4vv817rg" opacity="1" fill-opacity="0" stroke="#000000" stroke-width="1" stroke-opacity="0"></use></g></g><g><use xlink:href="#as17ntGrf" opacity="1" fill="#eb001b" fill-opacity="1"></use><g><use xlink:href="#as17ntGrf" opacity="1" fill-opacity="0" stroke="#000000" stroke-width="1" stroke-opacity="0"></use></g></g><g><use xlink:href="#b4y1yEQRTZ" opacity="1" fill="#f79e1b" fill-opacity="1"></use><g><use xlink:href="#b4y1yEQRTZ" opacity="1" fill-opacity="0" stroke="#000000" stroke-width="1" stroke-opacity="0"></use></g></g></g></g></svg>