<svg id="e8a6e9c5-76f1-4dc6-859b-fc7633b357c8" data-name="logo" xmlns="http://www.w3.org/2000/svg" viewBox="0 0 1881 433"><title>neosurf</title><path d="M1880.07.32c1.54,28-.47,59,.93,87.4-16.87,5-39-1.07-56.5,3-14.53,4.49-20.38,24.3-16.73,37.39,18.13.33,37.53-1.68,55.33.75,1.31,27.9.51,56.51.42,84.5l-1.73,3.46c-18.13.61-37.53-1.59-55.28.84-.47,68.71-.42,137.88,0,206.64l-4.3,1.35c-30.61-.84-63.93,1.4-93.94-1.12-1.26-104.51-.14-213.46-.6-318.48-.24-42.11,25.28-79.32,64.07-95.16C1806.56-4.4,1842,1.16,1880.07.32ZM54.26,20.18C81,20.09,103.33,35.79,115.2,59.26c28.69,56.74,60.28,117.5,88,173.59l4.11,3.22c-1.4-68.19.09-136.76-.84-205L208.1,27c32.58-.52,65.52.19,98.19.19l1,4.25V377.22c-.61,19.49-10.47,37.95-27.39,48-12.8,8.46-30,8.88-44.35,4.86-22.38-7.61-36.82-31.17-48-50.57Q143.17,295.32,99,211c-3.32-5.23-4.3-14.72-11.36-15.56,1.12,75.85,1.22,153.58,0,229.39-28.09,2.43-57,1-85.24,1.08L0,422.79c.84-116.47.09-233,.37-349.51.89-28.19,25.15-53.8,53.89-53.1Zm513,119.8c32.15,16.77,53.84,43.56,72.25,74.12l-.19,4.07c-48.27,33.37-97.29,66.37-145.8,99.51-13.74-16.36-26.13-38.8-38-57.16,23-17.86,53.23-34.87,77.81-51.65l-2-4.21c-22.39-10-49.59-11.31-69,5.56-34.95,30.57-36.68,89.32-2.15,121.06,16.45,15.75,40,20.14,61.5,13.27,29.82-9.67,52.2-33.13,66.27-60.52l3.6-1.69c22.06,12.53,46,22.53,67.62,35.48l.61,1.54c-28.65,62.77-86.22,110.4-156.84,113.3C440.83,437.05,381,398.72,354.8,343.15,335.87,304.41,335,257,352.6,217.66a159.89,159.89,0,0,1,75.47-79c42.67-21.78,96.93-21,139.22,1.31Zm519.77-9.63c32.47-.1,65-.1,97.53,0,2.57,25.28,1.63,53,.51,78.52-26,2-53.23.09-79.45.89a21,21,0,0,0-17,10.28c-2.85,8,7.25,13,12.67,16.69,22.15,10.84,44.72,17.95,65.37,32.48,16.74,11.17,31.18,27.67,35.19,47.86,4,28.05-.46,58.38-20.51,79.69-19.39,20.94-48,28.47-75.66,28.93q-56.14-.06-112.35.05l-3.22-2.38c.42-26.08.47-52.26,0-78.29l3.27-2.43c32.58-.09,65.24.33,97.77-.09,8.64-1.45,15.7-12.58,8.18-19.87-11.59-10.8-30.15-14.3-44.35-21.17-27-11.27-50.1-29.68-58-58.94-5.61-25.15-5.23-54,11.22-75.3,17.61-24,49.63-36.83,78.84-36.87Zm140.66-.1c30.75.14,61.55-.14,92.35.14l1.26,3.88c.42,56,0,112.18.18,168.22a45.19,45.19,0,0,0,7.11,24.68,32.16,32.16,0,0,0,40.94,10c14.67-7.71,19.3-23.75,19-39.31-.23-54.68.43-109.42-.28-164l2.15-3.7c30.89.61,61.88-.37,92.72.52.42,56.74,0,114.83.14,171.76.1,24.68-5.18,48.85-17.1,70.53-16.82,32-49.35,52.77-84.68,58.15-34.3,4.2-68.14,2-98.23-16.36-38-22.58-55.2-64.92-57-107.64,0-57.49,0-115.4,0-172.89Zm289.56,0c27.66.19,55.38-.18,83,.19,3.79,14.3-.93,30.85,1.73,45.43,6.69-7.15,8.74-17.67,16.22-24.58,18.13-19.12,45.28-21.93,70.19-20.48-.23,29.64.51,59.6-.47,89.13-18.74.14-43.36.66-58.93,12.3-14.11,11.31-14.16,30.24-14.91,46.78.24,48.29-.28,96.61.28,144.94l-3.78,1.82c-31-.84-63.65,1-94.31-1-1.54-94.93-.19-195.13-.7-290.72Zm-663.84-4a143,143,0,0,0-67.86,1.31C716.65,145.3,664.5,211.86,668.09,283.7c2,79.69,72.58,149.61,152.59,149,82.9,2.57,156.79-70.95,156.09-153.67,1.3-72.22-53.19-137.89-123.33-152.75Zm.46,204.91c-24.76,16.54-59,10.61-77-12.95-25.61-31.18-14.58-81.19,22.24-98,23.74-10.09,51.92-3.5,68.14,16.64C891.2,265.28,884.93,310.76,853.9,331.19Z" transform="translate(0 0)" style="fill:#f39"/></svg>