<svg xmlns="http://www.w3.org/2000/svg" viewBox="0 0 60 20"><g id="Trustly"><path d="M56.8,20H3.2A3.2,3.2,0,0,1,0,16.8V3.2A3.2,3.2,0,0,1,3.2,0H56.8A3.2,3.2,0,0,1,60,3.2V16.8A3.2,3.2,0,0,1,56.8,20Z" style="fill:#0ee06e"/><path d="M22,14V7.43H19.64V6h6.3V7.44H23.57V14Z"/><path d="M25.76,14V8.18h1.45V9.1a1.36,1.36,0,0,1,1.35-.92h.57V9.64h-.5c-.73,0-1.38.42-1.38,1.71V14H25.76Z"/><path d="M30,11.9V8.19h1.49v3.35c0,.75.38,1.24,1.06,1.24a1.14,1.14,0,0,0,1.15-1.23V8.18h1.49V14H33.7v-.74a1.88,1.88,0,0,1-1.68.87A2,2,0,0,1,30,11.9Z"/><path d="M35.93,12.36l1.31-.3c.06.52.48.86,1.18.86s.89-.24.89-.55-.15-.43-.7-.56l-1-.22c-1.1-.25-1.62-.77-1.62-1.74s.82-1.77,2.33-1.77S40.62,9,40.7,9.7L39.39,10c-.06-.36-.33-.74-1-.74-.48,0-.83.21-.83.53s.21.42.53.5l1.28.3a1.66,1.66,0,0,1,1.48,1.68c0,.94-.76,1.86-2.38,1.86S36,13.07,35.93,12.36Z"/><path d="M43.86,14a1.49,1.49,0,0,1-1.63-1.63V9.48h-1V8.18h1V6.86l1.49-.42V8.19H44.9v1.3H43.72v2.63c0,.42.21.59.64.59H45V14Z"/><path d="M46,14V6h1.49v8Z"/><path d="M52.4,8.19H54l-2.46,7.9h-1.6L50.62,14h-.8L48.16,8.19h1.6L51,12.77Z"/><polygon points="6 9.5 9.74 9.5 9.74 6.53 12.71 9.5 9.74 12.48 9.74 14 13.34 14 13.34 9.5 16.66 9.5 16.66 6 6 6 6 9.5"/></g></svg>